<mxfile host="app.diagrams.net" modified="2024-04-03T01:09:35.813Z" agent="Mozilla/5.0 (Windows NT 10.0; Win64; x64) AppleWebKit/537.36 (KHTML, like Gecko) Chrome/123.0.0.0 Safari/537.36" etag="wX-uYUkT_AhEh0m0vMn8" version="24.2.1" type="device">
  <diagram name="PÃ¡gina-1" id="m0bvx0j7hCRIlkdtix1S">
    <mxGraphModel dx="1034" dy="457" grid="1" gridSize="10" guides="1" tooltips="1" connect="1" arrows="1" fold="1" page="1" pageScale="1" pageWidth="583" pageHeight="827" math="0" shadow="0">
      <root>
        <mxCell id="0" />
        <mxCell id="1" parent="0" />
        <mxCell id="WUKZvmKu0vjh5GC4oTGp-1" value="Diagrama del proceso de la carga y guardado de una linea&amp;nbsp;" style="text;html=1;align=center;verticalAlign=middle;whiteSpace=wrap;rounded=0;" vertex="1" parent="1">
          <mxGeometry x="198" y="20" width="192" height="30" as="geometry" />
        </mxCell>
        <mxCell id="WUKZvmKu0vjh5GC4oTGp-5" value="Cliente" style="rounded=0;whiteSpace=wrap;html=1;" vertex="1" parent="1">
          <mxGeometry x="78" y="80" width="120" height="60" as="geometry" />
        </mxCell>
        <mxCell id="WUKZvmKu0vjh5GC4oTGp-6" value="server" style="rounded=0;whiteSpace=wrap;html=1;" vertex="1" parent="1">
          <mxGeometry x="360" y="80" width="120" height="60" as="geometry" />
        </mxCell>
        <mxCell id="WUKZvmKu0vjh5GC4oTGp-7" value="" style="endArrow=classic;html=1;rounded=0;exitX=0;exitY=0.5;exitDx=0;exitDy=0;" edge="1" parent="1" source="WUKZvmKu0vjh5GC4oTGp-6">
          <mxGeometry width="50" height="50" relative="1" as="geometry">
            <mxPoint x="240" y="180" as="sourcePoint" />
            <mxPoint x="200" y="110" as="targetPoint" />
          </mxGeometry>
        </mxCell>
        <mxCell id="WUKZvmKu0vjh5GC4oTGp-8" value="" style="shape=image;verticalLabelPosition=bottom;labelBackgroundColor=default;verticalAlign=top;aspect=fixed;imageAspect=0;image=data:image/png,iVBORw0KGgoAAAANSUhEUgAAAkAAAAFmCAYAAACFhyWAAAAgAElEQVR4Ae29a7Ac1ZXvqU8zcXtiZnrm9o2OOze6rIf1aNsisBqbR0sYjCkkJAQcXu1GwgiDZMnCQjIgaFrmCBDCkiUBRhgjIYGRQDK4wejwkA8yChB6HSF8DnoZ14y/3IiZiBtxP9yJGzEx05c1sV+Za+/c+aiqzKysqv+HisrKx8611/7vvX+11s6qcbVajfCCD6ABaAAagAagAWignzQwrp8qi7qic0MD0AA0AA1AA9CA0AAACBEwRAChAWgAGoAGoIG+0wAACKLvO9Hj2x++/UED0AA0AA0AgABAACBoABqABqABaKDvNAAAguj7TvT45odvftAANAANQAMtA9All5xPc+fOjH3NmzeLpk2bhhd8AA1AAx3TwJe+9CUAPr7kQQPQgFcDLQPQ5s0/oLGxrbGvo0e3UL1exws+gAaggY5pYPz48d6BD9/+8e0fGoAGAECYnDo2OQGQ8QWhaA0AgDDJAXSggTgNAIAAQAAgaKBnNQAAwuQXN/lhP7TRkwC0YvdhOvneRroJE1vPTmxFRw5QfvdEp2598nd08tCL9ENPfwcAYZID6EADcRrIBYB2/+B/pnHjxqnXlGvp1ye2kr0GaDG9vOXPdO6X79E6zyClJpt/oI2PnaZzL/5ZvbYfpZ3/2PwgLODnXOMI7V7Ert3wLp1qNOjI7kUBEKjz7H3NTnqyjLH3aONN7F6x9VPnbHj3FDUaDfVq8lpl37W0bugPYRlnh+mpmHteu26I/tD4nI7tvTeod7N1jD/fscPUidtzy0t0yOwvzI7svo+vS5ll3EG/+P3psP0aJ+mNB8u8f873un0D7Rp6g15Yu6AAjSlbH/yXXfT2yT369XN69Ea3Dsto77EGjQ09GrEBAITJL27yw35oo00AepSeuPy/p3FX30WH9YJoCUNX30UHrEXQ6QB054MjdK5F6AkmthW76fC5MXpv4032QKgBqHFkNy3SsGBAhENRUE4MULjHWwEgU0Y715oybnnpEDU4cDh2lwFAnx/bS/c69zX2Be/XrqOhPxQFYu5k2PrnNH8G9Umrb+xxDT+nD9Lzdxo776PfHHyDHoy9xpyX8/sdv6Dfnz5NB5+/0+4rzdpRMADdteM52vfheloxX9VfwhD7HLTJsr10rHGWDr34Q6s+ACBMcgAdaCBOA20B0P4nzqO/YPCjngq7j37w7/4DLfvVRmsgCgYq7wCroj+nNu+m5d7j2QZ/CTUMcsw9JWwcOUgHT5nI0AZ69/h79Ob7p2isjVRZOxDTzrWmXsVP2El+VxEgAFCSj+xjd/zi93S6KhGfXAFoLz253K6r0Wh77yvpueN7aOfWa8OxZMUg7Trh7NNjxrK9x6gxNkSPsjEEAITJL27yw35oow0AGpCgs+LXT0YehRdRoPoT66led9JasSmwPABoA717yhP9qddJwIZYE/Tzd4+r6NCGd+m4/GwDkISSIGXT8MDRCtp9+BxLXzSo4aaxTLRJlxMXYSoUgNJSTzIic5aGnxWRGZ2Oa5yl4afsSUxFkMxxN4KTFwDdQi8dMvdo2BEtbeeBN0UqTx17XkS9Gg2ywSuhjHqdBCiK8wf1te71EiRZuwcpStcnll8b1Pj8GO291/ZZ/ISvoj+nDz5Pd7IJOnr+ffSbT5g/HGCSEGVFkNxyxfUisrORlcMiPRJ8ePnhdrptnrre9CD94vWCAOiJTfTbk3bKy6TDfv3qUprn+lFGgcZo6NHQTgAQJjmADjQQp4HWAWjNd+jy89R6HxkJ0muApqx4kIaeOI/mSQAKByKZ4nIB6Not9PZzes2PWfuj3z995Kfhtz53oPN9luBhIjzhfcUEYwDopgB8FAiJiJGJACn44dcLoOIQpOGHRZgiECNtYBAmU3L+dUaRa311StmXGgGKSz3J/WLiM9Cj1/OwdJqCH3O8TnU5+XMI8q8BssFEt0OcHXUFLuE1jh3GTmGXhg9x7kNibVMAHyllaACyoCdSF2Vnoj9j62BrLQo05rgCm2TIiJ7jRo2yAZBo2xB67vvNJ9SwoKlO9bwiQHEAJPcP0dCQ+2pivZAAoCDdpaJBAnz+WawJeuef6LpI/xBrgew0GAAIk1/c5If90EbLALRmwXg6b8WDdGL/Irr8Ly6gLYe3koj8XL1lEwkg+tqye+k7bIDyAlBwvP0IUBJQhKAjUl8n6eRJtXA53K/gxsCQmcSsMiXMcEBSYHWORYDC8sykVyexj6898pYd+CG8zpyX9J44YYsy4yZtz34JPAFUKBA5O/wUg1C1z4WV8HOC7Z77yXoJEAnuqa+XcKLBi1/H9/Pr+LbxIz/XABCDu7oGL7t+KlIUu6ZK2uJGnhLqbGwJ3qNwE2nb+35DnzgRn3pdXXfyjQdlW2QFIHO+vIev3KIBKKh3Mz5yzjUA9DMRCdpBT//zXOkDEQXyRoDq0cXQACBMcgAdaCBOA20B0HUadtQ6ILEgegKJlJgAoEwRoGCQLAuAFJAY0AnhREV7IukqHlXi29puC5DqnvSYSauwqJGZ9OxrnYE/8Evy/uIAyEkpmXpYqScXiBJs5SDD6man2MJUTBCZ4tdxqGHQk1pGXgAk7NYQZFJkLkCZtvW/u6mqqL+icCPOsa+LnmMfd4GpYwCUVwRIPP0VRIGEP26nDe+/AgDCXxvgF76hgbY10DIAraj/hYz2iKiPSHudGFOLnwUAhWuAwkG+6AhQ3QMoZiLyRWbEMQkhEk4yRIA85bsQE3cfYwd/d6/lx7JuFwdAvghQ2JbKvvYBSKbV3AgQAyQrghUDQKll5AlA3DZpD08Juv6JfvamoniZvkhN1SNA3P7ctz2LoOtiXxgNsvsKUmBx33SxH1EQaCCqgZYBSKTARAQoAKDdc+jfjROpMAFCF9ATB+z/AiscgOoxUZy6HfXhA2YIQBqG+O8HRdbv2OXLa0VkhKXAFISxNUAJE0IaAK146jW5fuK1Z1fTDTHlFAdAdYqsAYrYkAMARdYAOdCQIQJk0llJqbion1SEy43gpNeZ2cdts3yzhp6X615epc1L2fniHLMA+SR/7J0/Bh9Nk0WgyYEkebzRoHBtkZ0yk3p3rlF9IHov3jcybxf8GLxa9BwuhI59DF74F4ug2/5GjEkyOknCJ73rk7YASK4BkuAzjsZNuZYe+p76QUQREfpQ/A5Q3CLnyO/9tJ8CEwN2mNLiE48/uiPO5wAUXM/SPf6UmE7VCPD5+bt0igOQGIRlpIinc/giaAVRJoUSvttri6RtcQDkpGGCMlgkRU74rB7mnGDC90zecvJnZQgbouklHvFQAGTKDt7ZWptUOyQ4eNJtpgxuZ1wEKK2MJiJA9bpbJ3cRuN2ugT+lDUZzCQAkz1PgEfjLXfNjIMm0n7t4WafEzPUCfDb+5pMWAKhOdQlGYZ1CiDJ1yfBeMAAJHZonv+SPIVrpMNs+PAbfuxMVIARtW4QGWgagzewpMN+/wtu/BG0PVGJQK+QVidoUdJ+i7Ee5xegCfu19v3qiP2KMwSJoTJxFTJwoszd01ToAbV4Q+RXosf2L6Hv3ifVA7l9hlAciKjUVjagUAlyYWHt/YkUbd0EbR5/+Mv0dANQbExWAA+1YhAbaAKAf0NiY/isM8z9gcg3QVvnDiB2JAOnJSkAQ/gy1POg0kw3e4fNOaAB/horJsYjJEWX2vq5aBqC1a79H77//eOzrwAHxS9CYEOADaAAa6JwGEAHq/UkMoII2blUDLQNQ2g0nTZoEAAIAQgPQQEc1AADC5Jg2V+F4/2oEAIQJqqMTFKIjnYuO9IPvAUD9O7kBbND2aRpoGYAuvPDCxInz8ssvx29S4Jc6oQFoABqABqABaKCSGgAAQZiVFGYaueM4vt1BA9AANAANtKOBUgBowoQJNGPGDEy0gC1oABqABqABaAAaqIQGcgOgVa8epT+KX68dfYfWD9SJp8DOO+88WrlyZSUq3A4t4lp824AGoAFoABqABnpDA/kA0KpX6egfR+md9QPBuiAAUG8IBB0d7QgNQAPQADTQixrIB4A276czOvJjniwBAKHD9GKHQZ2ga2gAGoAGekMDuQCQTH8lABDWAPWGWNDp0Y7QADQADUADvaKBUgCoV5yFeqDjQwPQADQADUADvaGBXABo8/4zNPrOehpgPyrIU2AQS2+IBe2IdoQGoAFoABroFQ20BUDmya+Pf3VrsPjZtwZI/BrrtGnT8BQYHn2EBqABaAAagAaggUpooC0AMrCTFgHCY/D4xtAr3xhQD2gZGoAGoIHe0EAuAJS2CBoA1BtiQadHO0ID0AA0AA30igYAQAhFViIU2SsdCvXA5AANQAPQQHdooBQAmjRpEs2ePRsTLWALGoAGoAFoABqABiqhgVwAqJ7yQ4ig4e6gYbQT2gkagAagAWigXzSQDwCl/BVGvzgT9cTAAQ1AA9AANAANdIcG8gGgep3MI/G+P0OFGLpDDGgntBM0AA1AA9BAv2ggNwAyj8Sbd/5DiHgKDB2qXzoU6gmtQwPQADTQHRoAAGExWiUWo2HA6I4BA+2EdoIGoIFe0QAACAAEAIIGoAFoABqABvpOAy0D0Je//GX59xbiLy58r6lTpwbOnDx5Mg0MDASf86TH6dOn08yZM/GCD6ABaAAagAaa0sDEiRMLmZfynONQVnERt5YBqCqNcsEFF0T+h8ysQ8J7Hb5hf9ALPUAP0AA0wDUgfqOuKnMZ7CgOdOJ8CwDCBAlIggagAWigLzUAACofOuJgpBP7AUB9MPAte/EjOjn8FN3aB3Xl3+6wjW/70AA0UL/rFTr62Tu03jP+AYAAQIWHAMV6oCVLlhRyHzcF9sSjZ+nci3/Wr+P0qxu7awD40epjdOoXv6Mn5udjt4Cfs41jtPeH+ZSX74Qyjxa99V9oe+ML9fr8z3S3Z5AS95z98Bg93fhvtOU3TxTwTdWxw2fP/P203uwvzI7qtdHT6xt07sWPadvcvG1bQE8Pf0aNsx/RzqWm7OW093jD2WeOZX1XZYzuW5tdJwuepuHPGtRoqFdT1xq93rKJ9o+FZXz2zvqY+99Cm/aPUePcx/Tyj7LWqYnzHDtMnbg9d71yNKhrYXYYv1TiXfn83Mcv048cewBAAKBCwISHs4r8HSAOQBIeXuw+6OFQkSsALXuRPjr7GQ0/dWvMYNzEwOoMHNzmPLavfuE/0vYOA9C2EyfotrR6Xv1zWvNpUSCWX3uk+TNrmxUOQI2z9NHOpUqfBkQsKGrWJy0AUNDm7Vxr7LyLXjnaIA4ctq/LAKBz9PHLP0rt87ds2k9jRYFY4FPjl1bf0/yZsVwNhm67AIAAQD0DQDL6s+VVuj23zpexc+V4vzwB6JF9o9Q4tpd+mKN99mCen3/ymrBbs09FgABA+bVnejsI2DhLxw5+TCc/2klL63Va8PQwHfvdmzT82SjtW9uqLe1ATDvXGntzmrBb7bNyogcA+fTnAz4AEACocACaMmUKLVy4sJD78AhQMgD9jPY9b1Jj4t2JFN36Kn34gtjHz3POqd9DL23+U5hi86Wqlv6O/hCk4P5M53xA5p7DyjEA9MJDx+iUKcdXRuoA+QjtG/VHf65adYBufv4QzV9gBu061a8epGufPkM3Pbo5+OZ41ff/hW7cfoZuNq/Nu2lOcN/5dPVPjsvzZXn6HH69bxCK2xcLQGmpJxmR+Vd67DkRmdGptMa/0mPPsroFKTRz3I3g5AVA19PKD809vrAjWtrOdW+KVJ46tkJEvRpfkA1eCWXU6yT8JM6/XV/rXi/9GKTqmC0en8S1hdh/3z+fpLNGf74U2I8O0uln36aH7zlIp8154vMc2+/x9xCwMUr7nnyaho/to7V1kRI7pj5bAKSgxKRyGg0PHC3fS8d1+sqcZ6exdLrNnBMbYSoWgNJST3KC/uwdelpEZoytkbUrOoJkjrsRnLwASKybMfdo2BEtZecwvSlSefLY8zLq1Wg44JVQRr0uQFGcv05fK9KH/HoFkqY9rXfHJ5ZfGw3ypbqkDj2+AQABgAoBE54CK3L7ggseccAmhJyTj22im+SEraAm/FynSLpMApC69qMH7pAQYAOVhh8GI/I4g5d6/We076csAqXLNOXJTijh5zQNLb05AA0+SSi7GDj5ygggJGGyeWQfjcat/ZGwc4pueGBVYIOEHQ5F4px1DHiu2UbXb+fXKACScPTLd2iusEmeM0bXtbDeKBaATF3jUk9yv5joDfTo9TwsnabWD5njdapLqOIQ5F8DZIOJ9nWcHXUFLuE1jh3GTmGXhjpx7vfE2qY//Wd68AFRfkoZGoAs6InURdmZ6k/j17R3ATpxACTAJ4CeX9D+HX+mkcFHaV5amfK4BqC1DHwECMk0mIEcBSRndYRI9BMRJfqMQ5CEH5ZGq7sQo+FnVECW8s3yvcdj1hm51+o2z1Qfc256BMgXiRB1k/sFdJgJPpK20fBjjtfrJCd/DkH6GgsYLLAwdur78WtNPSW4MBhx7DB2inSSgg9x7kNybVMAHyllKACyoSdSF2lPsj/jfMnH1HBb+Y+nwQBAAKAuB6Dwd4BsYAk7el1ChxvNUVAUwIkHNEw0Ri5IlsedMuS+eJip64hRCF4KosLPzEY9+Fj3lPvSrwk7eFieXPz82TA9dWu4LzxPw0sQ0QmjOeE57nU30jU/5REiXYaBH2GrB6ziy7PLT52w48DDs18CTwAVCkSeP/BmAHv1utrnwkr42bbNqoPnfvK4AJHgnvp6CScavPh1fD+/jm9rPShYC+Et6icFTXb9VKQoaU2VVSdzL997IgDZi6PleqGNL9F1vnLcfQx0BNScPHmSjomFy2x/XcKNgSHTJjakCJjhgFR3AYiXZ2yQ+zg0+cvO7CNTrnxPnrBFmXGTdnS/mrADqJAg8hm9s97YW6e63OfCCvts2cauS7BDgEhwT329hBMNXtxOvp9fx7eNH/m5BoA4jMintRpO/WSkyI5AmfICX8YAHj9PbTv+rNcJAAQA6nkAikKFGAgcsEiDGTdtZcL+L9oAJCEsOKYiSiHwONDlGZyitjp2eq6JdvQ6JQOQjtaYiI8EFzdywyI8JgW23QNAAUTZg6vPpqR90YndKY8DBPeBZ78NQE5KiaWHQuBxgci5d8r9RL1UlImnnMx2dgBKLcNEgFh0y0SNuhmALOhhcCKjPZF0lYroKOjh26bNbEBSEBU+nRVGRroQgJyUUlgXBjwuEHHtOtscZMK+qaNMLP0V3CczAKWXkRcACbtlPQJ7XYAyuhDvAKAiszHdWHYpvwPU8TVAmSNANsyEg0Kd6r4IkDOgSHix1ha58OJ+5p1TbecFQPWkFJi0W0R0VEpLpL9ucEAmuk4oJgLkXGf5zPFP0rHiAMgXAXL93j4AyUiNGwHi9eeg1kwEiJfRqwBk1VEAjIaT1AhQBgDyRYCs+3EtOPAUex6/xt0uOQLk2tg2AKm0mhsB4n2XgxOP6vCoD9/m14bbHj9JwHMBxnOeW2f2WdrjS+vJcxQA8agTIkCIABUeASrrMfjYFJhYm/P8nymMxNQpsn4nLQJkFkCzNUBhZ1aDoFumAiL7vmpfPGjlBkB1sQi6Qcf2/pClfuzBWoHPHpr3k6PWeqB6PZreMgudw0XO+pzKA5CJzoRpJLfdoikx20/W+Rxk2MBrIjFhVMkpg18XB0CRNUBOGU0AkIomJdU5WrZVT1O3ElJg9n0ZAOl0Fk9xuet37CiRAhgRsQgXQUfXANn3435IA6D7aOu/DNHQ0K/p5yvnx/Sr9AmbAwS3JbrfjVjoyApbA8Svl9s5AJBKRbGoktGCfud2xgFQWhnZI0AZ6szs47Zl8Q0ACADUBwBkIjjhAulz1uJlczweTFRnUhGc8IcW/0x2OQq0guNbXqVfPHrWAi9RjgGj4DxmS34AVKfUx+Bl6usM3czX8ZjBxBwz6a/NApTUU1/KFzkAkIQCkypi7yySIiNDLG1lfjQxSPlwsNC22ykwNcFF00vpi6D5GppUO+S9Pek2k67idsYCkLA1oYwmAMhAnfFXuEicT/hx2w/Qnqf/j/BpxyClO0Zv3DlPTfweMGpqDZA3uiPs4QBU12uCWAorJiVm0jSj+56UP7AYApAoU0NQkCaxf2xRLaxm99DncfBSmo8HIDnx8vL1dhhJUWBk7Azfw4hHdPJ2AUjURQMBvxePeEgAitYljHqk2yHr6km3mTK4nbEAJPpDQhnZAcisc2J1YgAo7899EVlDFGqc263aE2uAujFtlafNpaTAyvwlaCNsvNepLn8IMTkKBD+FAyR8AV9AAz2qgZjIGCJAiAAVHgHKk9jcsvjvAGHwig5e1f4rjKi9aEP4BBqABvLVgC+SpnwMAAIAAYBM2qdH3wUE4c9QMankO6nAn/Bnl2hApOJY2oy3GwAIAAQA6lHw4R0d210yWEOLMYuL0X7ow/lrAAAEACocgCZPnkwDAwOF3AcpsPwHBQy08Ck0AA30gwYAQACgQsCEr9Up6zH4fuiwqCMmJmgAGoAG8tEAAAgA1NUAdP7559Oll16a+JoxYwbhBR9AA9AANAANcA2MHz++8PmPBwOwXS3gKuUx+E5GgK644goIvFYt0WEQQHtAA9AANAANdFoDpQBQkZVMWwMEAEInK1J/KBv6ggagAWigOzUAAEJ0BBEyaAAagAagAWig7zTQcwC0YvdhOid+Gn3sPdp4U50QAepOMsc3KrQbNAANQAPQQJEaKAWAJk6cSLNmzSqELq0U2IrddPjcGL238abgt0QAQOhARXYglA19QQPQADTQnRooBYBKWwS94V06pSM/5jFRAFB3ChMDCtoNGoAGoAFooEgN9BQAyfQXAKiQSFuRIkTZGOSgAWgAGoAGytYAAAgL3wBM0AA0AA1AA9BA32mgFAASPzY1bdq0QpzL1wBtePcUjb23kW5i/6eEFBi+VZT9rQL3g+agAWgAGqi+BkoBoCKFIADIPPl1ZPeiYPEz1gBVX3xF6gJlo/2hAWgAGoAGkjTQEwBkYAcRIIg9Sew4Bn1AA9AANAANGA2UAkATJkyQ/8VlbprnO0+BYRE0hJ2ntlAW9AQNQAPQQO9qoBQAKusxeABQ7woVgxDaFhqABqABaCBPDQCAsPK/kMXpeYoUZWHQgwagAWgAGshbAz0FQHX8ECJgBkALDUAD0AA0AA1k0EApAFTWGqA6/goDos8g+ry/RaA8fDOFBqABaKD7NFAKABUpDL4IWjwNZh6Jx5+hdp8Yi9QJyoYeoAFoABqABrgGeg6AzCPx5h0/hAjBc8FjG3qABqABaAAaEBooBYDK+iVoAz38HQAEoWOwgwagAWgAGoAGXA2Mmz59OhX9uuSSS2jlypWF3EekwGbOnJn4Krp+KL94DcHH8DE0AA1AA9BAnhoYx6MlRW3Pnz9fAlBR5aPceuQvQOAT+AQagAagAWgAGojXQM8A0FVXXUVz584FCLA/goXw44UP38A30AA0AA30twZKWQM0ceJEmjVrVqGPaBf5a9Nu3hCfkUuGBqABaAAagAa6WwOlAFAZIgEAdbcQy9AI7gGNQAPQADQADRgNAIB6+IfzJszbTfO3j9Gcu24oNPpmxIR3DCzQADQADUAD3aKBngGgSZMm0ezZszHRM6BrG4C+tpmu2v4pXXY9OnS3dGjYCa1CA9AANJBNA6UAUN+mpy5dQKsHl9P107M1RuVEmwJAX563hAbXLKIrGXRVrg6wDV8KoAFoABqABjwaAAB5nJLHJP71+UvpocH76bZvT3WEdyF9c+0Zunm7eflSVEnnfI3OW3WUBu67nyYt2h+UIz4HdktwSSh/ynK6dMundNnN4t1znnW9Oa7erfvUJtDMf/wxDf5kBd34zS6FvILaP2gLlB/qEr6AL6ABaKBCGgAA5d4YX6f5Sx+iQW/kR8HLjeueob+Nva+Cn/hzVBkSoLb+ms4X5cRFaiToeABL7hdAE6a3JEz98gBdNIuBTFy5ju0yEjT4E1px4zfRuR3fAISYnuAb9A9oABqokAZKAaAy1udUI812KS1YPUiDy6+n6d5G1vDiggY7V67bSTheq+kyDPyIaxNBJw6AnP0mKsTX+2QEIDHJT5j5j/TjwUFas+hKdHDWngAgABA0AA1AA9XUQCkAVEbjVwGAVNorCYCECFgER6TBOMjUaiqt5eyz/aeuj48QMaE1A0a+c5sAoNqX59GSwUGkwwA/AGBoABqABrpCAwCg3IWalAJjcCLvG013ZY0A5Q5APtjx7fP4Cykwt13x2YZ2+AP+gAaggeppoGcAaPLkyTQwMFAZ6oxfBM1F4InmyEjMGYoHHM81HiiRnc0X1RHnRvbrqJQbedK22Aufuf1YBI1BjesB29ADNAANdI8GSgGgqVOn0pIlSyoDJ6UJNPIYvPt0VzQFJm3T4OF/UiwdgPjTYWEZZ+STY/7y44FL/ZZQ+CQYhyE8Bt89Hb00zcfBOPb33/iHNkebV1wDpQBQFdbnYAJgk3UkAsSOVVywaEe0FTQADUAD0EAeGgAA9eOEDwDCN7N+1D3qDN1DA9AA00ApADRlyhRauHBhoY7v2zQba8zMRAwAKlSLmduhlbbDNWg7aAAagAZy0cC4GTNmUC+8Lr30Ulq5cmVP1KUX2gN16I1+hXZEO0ID0ECvamBcvV6nXnjNnz9fAlAv1AV16A1Noh3RjtAANAANVFcD4y6//HLqhZcQ2V133dUTdemF9kAdeqNfoR3RjtAANNCrGuiZNUBYd4GnAqABaAAagAagAWggqwZKASA8Bg9BZhUkzoNWoAFoABqABsrQAACogNX0VftV6jKEhHtgwIIGoAFoABroJg2UAkBlPKJexqP2WRsWES8MAlm1gvOgFWgAGoAGOqOBUgCojMatEnR03JYLN1D92fDvK+YsnpvLbyaU0Y7N32MObRo+TY1Gw36NDtHgzDI7VZodvuOHacdAmTaye127il48uYfe1q/dz13dw2ij3rIAACAASURBVBph9S4g4tu8ZmEPfAYNVEEDAKACBsQyIl7ZxLOEZm05Qy0DkASp43T5DRd1xeS4+JVPqHF4Bw342nTOJho+PUpDgzMLr4vfDgVAo0ODNFPbN2fTMJ1ulGOTpZdLFtKWQy/SM4O6XSUMsc8+/2Ff4bqx2gj+hr+hgcI10DMAVB3oqBLZA4CCSaWCACRsk7BUcrTqyqefobd/v5quCwbYGbT41R3OvirpGLYEOg7aDD6BT6CBdjVQCgBhUXCnhJoEQFfTNx7+lIJ/i3/qdfr6dG2nk0ILztl+hq5b/SBNyjgIywjH4R20SkY6dIoqEqFxUkMcBha/Qp80fGmixfTKJ9HIiTfyIsHHSY/pdBmPxtRqCXbU9P12vUmfiGtHh+iZX4roTcMbcfLaocu371mjWmwdi9LMZfTP+/eQlfIy6bDDT9DdV/D7LqCdRz6nRmOYNn+V78d2uwMvroeGoIHOa6AUAOr4mpiME3bvCTIOgDT8PP4sTdW+mX7PUbqZQ5DY32YKTKV4GCRoGDm8Y0CHNjV0MCiyIiLyfA8Axez3g4fuZPKaKDSpNk+xQwKQAp/BRSKVpusUAy9+O9Q9/AAUZ1d0gLhqzYs0NDQUfb08SNdk0rkAoDDdJaNBAnyWiTVBz9EjC/g9AUC9Nybw9sU22re/NQAAyjRpNCeSSZMm0ezZswvPX6Z33hgAkmDze7r4IlYvH+z49jXhLwlAPKLjRkF8IGOBCov08HP5NrPHDx66jla5rN7iel951vnCjgZJcOP7fdeZtBaDOg5Z7QJQeps7dWP+UdcaALpRRoJ+8/qd9PfiHBEFikSA0srC8fbbAz6ED6GBTmmgZwCoOtBRo+pEvGIAaPbLdO328CmxMMXlLHguGoBkBMWXnjIRERU1EeAhYGpkZIQOiuiRuM4CKzWAtAxAqXYUB0AqSuaJckXARdUxnwiQePorjAKJwecbqx+l1wBAFfjSgsmwU5Mh7tt/2isFgMoQVnWgowsAyBcB8k24RQNQTASF60VAzeEdq2jT8EHasWoTDR/Ua4oiERa9oNizX5bHIzduXVPtKAqAoqk3XveitqOLoGsk9gXRINc/+AwwggaggR7UAACogEatDozFRIBq0TVA/slWXd/MwmdeTmoKzCw8joOWWk1Ffg6+Rx8dFI+3C2A4SK/vGqYR9ji5uWdiBEiv44mkoGT7p4FIMQAk7fUu8i74m5he9BwshI59DN6sATpBe5ZOxgRQwFhhtIv3gjWPtkP/9WgAAORxSrcPRlNue5cGPCkuG2Scp8DE+e4iaOEbJ11ml5E8aKUDkLhewwf/IUOe3tLpKbNwWqWM9Hoc2Xae6/WTWpEfQnRSXTYMecoJ7MgCQJ7rLTs8x4Pyk/1YiB7Nk1/yhxDtdBi/39qhc/IHJk/sWUqTe7Cv8LpiuwM6hKYAJh3UQCkAVKX1ORjkMMhBA01oYO0QnWs0CADUhM86OKBD22gnaCC7BkoBoOqkhLI7BiKCr6CBGqkIEH4HCFrAeAAN9J4GAEAFfFubOHEizZo1C6HNAnyLQaikQWjBTjryuXhCD/ADzZWkOYwXmDNK1kDPAFCVoAMRLwyYmDShAWgAGoAGqq2BUgBo/PjxNG3atELptkrQUSVb0AGr3QHRPmgfaAAagAY6o4FSAKiMxq0SdFTJljJ8j3t0pvPC7/A7NAANQAOtawAAVEDOccKECTRjxoxCI14Qfeuih+/gO2gAGoAGoIFSAKgMICgjzYYOgw4DDUAD0AA0AA30hgZKASCkhHpDLOj0aEdoABqABqCBXtEAAAgpMKTqCtBArwwQqAcmO2gAGuhVDfQMAJWRZssqAkS8MGBk1QrOg1agAWgAGuiMBkoBoDLgpErQUSVb0LE607Hgd/gdGoAGoIFqa6AUACpDBFWCjirZUobvcY9qd3K0D9oHGoAGoIGoBgBABaz/qNKvUkP0UdHDJ/AJNAANQAPQQCkAVMYj6mWk2dBh0GGgAWgAGoAGoIHe0EApAISUUG+IBZ0e7QgNQAPQADTQKxoAABWQAisj4tUrAkQ9MJhCA9AANAANdEIDPQNAVYIORLzQmTvRmXFP6A4agAaggewaKAWAylgUXCXoqJIt6AzZOwN8BV9BA9AANNA/GigFgMoQVJWgo0q2lOF73KN/Bgy0NdoaGoAGekUDAKAC1gBNmjSJZs+ejb+YKMC3vdLxUA9MItAANAANdFYDPQNAZaTZINbOihX+h/+hAWgAGoAG8tJAKQCElBAEm5dgUQ60BA1AA9AANJCHBgBASNMgVQcNQAPQADQADfSdBgBABYgeES98O8nj2wnKgI6gAWgAGihOA6UAUBmLgqsEHVWyBZ2nuM4D38K30AA0AA10rwZKAaAyBFIl6KiSLWX43nePb3xjOs2dOzPxdeGFFxJe8EG3a0D0d18fwL7unRjRdv3RdgCgAlJgkydPpoGBgb4eFB944Ls0NrY18VWv1wkv+KDbNXDBBRf0dV8HLPQHLPRiO/cMAAE6qtUJAUAAm24Hm6z2A4CqNfb04kSNOhWjsVIAaOrUqbRkyRJ8Syog2lTVjgEAAgBlBYhuPw8AVMzkVNWxDXb1TnuXAkBYE9M7gont/FOW0Z6Rw7TjVlVXABAAqNvBJqv93QdA19MzB0fojdV/l8OXUlHWWWo0GvTpG6vp7/roS17sWAgf5KCrcuZMAFABYq1MxGv2y3Tt9jM0Z/HceEFeuIHqz56hm7er13WrH6RJzfpEwM+JBp0bGgzuwwHot6v/hsaNG6def3MlvfixWhtUr8+jRW/9F9re+EK9Pv8z3R2zLmj2w2P0dOO/0ZbfPFHAuiHHDp898/fTerO/MDuqA02rXx+hPzUacmITk5t6fUg7rjc2PkMH/mj2N+jTfWtpXkzbZQWJjp23+nUa+VNYF1PfxDo9c4D+2FD+qCIAfXXZGnr15B767b7l9B1ff171Oo02PqTnvtPeRHP9Mwfp7Kdv0Oq/a68cwAT81wkNlAJAZazPqQx01GpUmYhXKgAtoVlbzlBL0BMMqlNo2Z4T9PnhHXRrsK9GCoCeoK0D/xONu3ghDesF0RKG9Gc+4V39wn+k7R0GoG0nTtBtaZP41T+nNZ8WBWIGLtp/T/Mn971vWwLQp/to7bw0W1bT6yN/qjwAZauPgroPd1yfDtmVBaC/pVt3bqPf7ruf1r2VAEC1Gq16fZQabcKLKAORH8BLJ+Alj3uWAkB5GJpWRmWgo0oAxIDE6z8Z/TlOl99wURC58Z6XVM70zfR+4xwNDdqDgACgD7ZeQn/F4Ec9FbaGVv/tX9GiF39mTTLtTti+STz7PhUBAgCFsJMNGMT5AKAqRYBE5OfFl26mWm0G3ZcCQLXaKnp9tEEfPvedFvu/Sn8BgOyxr+kxNGl8xbEWtZmtTQBABQhsypQptHDhwkIbLrGTOWmt2BRYDgA0ffP7keiPsO2BB+YGoOM+Di+iQBc/ui4bAKWlnmRE5l/psedEZEan0hr/So89G07mAoRUCs0cdyM4eQHQ9bTyQ3OPL+yIlrZz3ZsilaeOrRBRr8YXZINXQhn1OglQFOffrq91r5cgGaTqmC0enyQBYl4A9MyBP7I0Gk+hKXD68Ldv6vTTh7TjeZFWalDDiTzFl1GnuojEiPOf09c618t6BCk8nub6lPatnWdpsF5PjgDZdoiyqpsCywZAOgr04XP+NFnq2AgAShyHU/2XbZLGPYrzU88AUMeho5JiVykuF4Cm3PYuDeg1P2btj3r/PV18UTNim06b37fX/pjO+sDd36KB89R6HxkJ0muA/mbRShraegnNzgpAJiUVl3qS+8VEb6BHr+dh6TQFP+Z4neoSqjgE+dcA2WCigSrOjroCl/Aaxw5jp7BLQ50493tibdOf/jM9+IAoP6UMDUAW9ETqouxsN6LmBQcHTBRAxUeAJDCwa1SZBoLUdQoi9Hoice5DYj1OCCfJZWgAsqBHleWu35H3Zrb44S8egFw7JHg1BUAL6aevDdHQUPT1yx+rxcjfuf95etNzfOiV9fSPX2mmX4pzs0SAalQTa4FaToOJCNKnOS2mbrZ+ON+MtXhvXQulABDgpPUGak/cfgAKymw3AiQXP39Oh3fcGol23X3TJDpv0Ur6+INlNPBX0+jR4a1kIj8CiMSxbxu4MRM7g5bIBBUHHp79EngCqFAg8vyBN9m3fbXPhZXwsx09smzx3E8eFyAS3FNfL+FEgxe/ju/n1/Ft4xt+rtdPCprs+qlIUdKaKqtO5l7sPRswiHrGAZCAiRBk1P04YPDr+H5+Hd82bcLPNQBkoEqdI2Hlwx10fdP1ccoOrvfYUdk1QGasaQKAml4MbZ78an8RdTAWVfILpPEl3nu1nUoBoCqtz+nVhvTXq7MAJKI84TogsSB6glz7I/blGwHi0Ryd7gpgxEkpsfRQCDwuEJnJ1vPOQSaYIN0Umyf1xK/jUMOgx07TecroJgCKebJKPGGlFhlnAKDUMkoCIGmHA3NNA1CFI0BNA5ABAkSA/OOu8Q/eq+4fAFAB3zzKeOotm7AKBqBafArsru/8L3Kdj4j6iLTXx2Ph4mcTCeJRiNSUDQcIBh51z/70CJALNu0DkEyrBdDlll8ny84YAEoto5sASK6ncaCBt5sVOeKRFx5t4dsen4ryGIgYPeUeAcoFgMqeDJuIALWcAsMaoGzjcNltj/tlbZdSAKiMR9SrlGarTsSraACqkVgE3Tg3RIMOSIoUmIjyBAD02xvpb8eJVJgAIZUSMxOWeC8OgEx0hq0BsiZiMbHmAECR9TvOhM1BLQ6A0srw+smfAouse4rUuU53bNwt16T8y/aH6VbnePspsDpF1s1Y98gQAaqnlZEdgBQoJQGZaC8OYrz9uK3mnlgEXasBgLJOtDivmlBWCgCV0fjVgY7O/w5Q3CLnyO/9tLsGSEBPzGPwwRogCT7jaNzfXEkPLVE/iKgiQlt1VISnevQ2i6TEPdUUrHnhYKEnWDsCpCayaHqJp80UAAU/yGjSZGxNUqod8t6edJspg9sZC0DC1oQymgAgA3VhnaIAmApAkaen2FobGXnhT1XpbWftjYQgqxxTBocKDh7RqE98GQZGTJmqrX0RIAHZdjkMhmJSbdZCauucD2nHT8RibXXfKj0GX7vkh/T8yT30tvv6+Ce00PmSgsfgqzkplzFf4h6q7QFAkUGh/U5RRsSrOgJWP4ToRoH4U2DuY/DmM48AYZtHHLDdTXqoFAA1MZ7JH0Js+RF4NU7ihxDbny+qM5b3X116BoD6CzoqJlTvX2FcH/kV6LEPltGSH4n1QOavMDDRd9NED1v9eu1KAMJfYUSeXAWIVGxeaQLmW227UgCoOouC+6+BWxVG09d5/wxV/xWG+R8wuQZIwY+IAmFC9U+o8Et3+aX7AEis3cGfoTY9xpUwIcOmcufoUgCoSutzILByBLZ8+Q30/vuPJ74w0XfXRI/28rdX9wFQOWMAxlr4ueoaAAAVQPWTJk2i2bNnI8Sa4ltMqP4JFX7pLr8AgDDRV32ih31+jfYMAFUpzYaIl19sbie88MILCS/4oNs1IPq7q218zjYGwE/wUyc1UAoAlVHBKkFHlWwpw/e4BwYxaAAagAaggW7TAAAoJU3TSoMCgDAQtKIbXAPdQAPQADRQngYAQAUAUBUEjJ8FKK8TVaG9YQPaGxqABqCB5jRQCgBhUXBzjZKHiBGFKt/nebQbykC7dZ8GLqVH3h6h3228Cmuh2vpCXacN+0fo7Ue/BT+25cfsY0gpAITJOHuD5DX49Y/P59Cm4dMk/mXceo0O0eDMMv2eZofv+GHaMVCmjfxeYtIaYz47Qbvv5Me7Ydutg9BAp+pxE+084miw0aBTv9tIV+nB/NJH3qaxQKedsjPvdtVtcGI33WlNWl+m5asepDPPr6RnZvFtc/9ptOmRdfTp/VeWPNkXeV9V9pkXHqZfR/o19wHfNv7Q73fsppHGUdp5i7Pf8i2O5TVPAoAKENbEiRNp1qxZJXdsu1NU6c9h8xJrWjmLX/mEGod30ICvTedsouHTozQ0OLPwdvHboQBodGiQZmr75mwaptONcmyyfacnrVO/o41XGd3cRDvfcycxc6zA90sfobfHTrUYPVD1iEJGq+W1U08FQCd235mur5t20pGOgVrWOmarj4Q6S0emfD3JP/t9ur/Gt83xIkHE3MP3XtB9v3Y97X/hYXrj7u/R0SQAivVHaOsdu0eoMfY2PfqtcJ/df7E/L3/0DABVKc3WP9GXanVEP3hoGysIQKITS5tLjlapSERFIhA5A5Dw6U07j1DDOykXqddswCAH7p4BoOQ6f3PR3XRGTvg14ttq8ioIRHxffqx9Rdx3Gm0aFJGuGn1tXhwA2T6I+oNr8w7aPdKgoztvSYdpq268DGwrnSX7oRQAGj9+PE2bNq3QxqwSdFTJliwiKOocGeE4vINWyUiHTg9EIjROaojDwOJX6JOGL020mF75JBo58QKQBJ9oakKky3g0plZLsKOm77frTfpEpDBGh+iZX4roTcMbcfLaocu371mjWmwdkztu620WjZr4yhIQISIri1jahkda5DVyIg99G41+6EhTkPZhkRkJPuG1PH1p38cpwwKbmLo4gNFKXRqRlI6a7LmdYju0NRkGLB879lnHHL+E5deoJq479Tva9ZsjMnV56ne/pK06jWn5PqmMmvLZid0PWinQ8Hp/PWW9XZ9oe8IoYjOaNSAyT6bCzrywjsQrkhKTkRV1TJ6jgUr5TJTxCB1YPIuVIT5/w55r3DIi99ERKm3DmRc8ZWQEjSQAsto5pTwZBTq6k27xnSfTZA0ae/tR+pbvOPbZ7Z/gj1IAqJmGb/XcKkFHlWxp1Z95XKdSPAwSNIwc3jGgBaqhg0GRFRGR53sAKGa/Hzz0oCyviUKTqmeKHRKAFPgMLhKpNF2nGHjx26Hu4QegOLuiE8pVa16koaGh6OvlQbomoaOH7akmOGti9VwnoygCXAxwuJEaOYlHgSacSGt06SO/oTfZwlhvZMYt17JFww+beO0ykgAotC21LjUn/acBIqyLa4fvvn5wCMtgbRkHQJH7Om0lr1PQZcBUlC/rZ3yUVoYGIAE0xjZ/RFDd25wT6iesh3Vfq93Cc3zXqX0KgDhsROFhGm1aI1Jourwpl9HuLRySomXIyIpcd6SvkfDDgcaAV7j26GvzFtIbDJoiZZj7Z3iP1iGLLzznCMiJS4MBgDIDTrz+lM8BQBlEneZE93gZES/3nu7nKvwytgQgHtFxoyA+kLFARUdexLodfi7fZu3nBw89uFjlOgOOrzzrfGFHgyS48f2+60xai0Gdapt8AMht5+Y/O5Mq8x8vywYN4S97QhTHXYhKnRB9E38SAMljTqrOOt8HIjpS0nAAyICcrK9dF15vte2WK84PyxPnSGgw0JGpTKY5nx+8Zer7GNvZdXztDbeFb5t68XNrGoCstrN8auxs1kfmuqzvURCp1cQ+DituWSpS89njN9GN0ueeMvRaHLMIWcBMeL4oz3ON2wecMowfs7znCkBYDJ0b6MS1XSkAVMai4CpAR5yTO7G/ClGoVACSERRfGsRERBQ0CPAQZY2MjNBBET0S11lgpQbKlgEo1Y7iAEhFyTxRLndQ1p/bjwC5k7s7yajPyTCjynDTQZE0iZxY3fZNAhrHFh3xiN7HwIi/LnLCZ4uMk+vC6huk6pTNISTo+gbAo+AgPC7KSAMGVjcGMnxskHY6Nsi6NwFAqWVUHoB4hEevmwlSUyoVFgKNB2YseHGBSbSB5xodWZIptuBevie5WBvG9E8AULqPuOY7vV0KAFVhMu60o8u+fxV8ngpAMREU7isBNYd3rKJNwwdpx6pNNHxQrymKRFj0gmLPflkej9y4g1eqHUUBUDT1xute1LacJM2k6vpCf06DBnHcBgB34PNAgm/i90YfdFnymANMlr0+AHJhRS+KDuDFtVNHWRgwRaMkukwOJ5Hy2gcgX/TG0gDzH4/q8Ov4tnVt4DePz7xtkF6fNI3472/8HwciYQQoChMu0HjKaBqAVBkhVNWoZpVh7M32HrU523URXyWlwIK2bLFsXB9ElgBABYhhwoQJNGPGjMDJEXEXcE/3HlX4JehUADILj+OgpVZTkZ+D79FHB8Xj7QIYDtLru4ZphD1ObuqeGAHS63gia3BkW6SBSDEAJO31LvIueGAzkRlrErfXwaRObnIyNpEYj736HuEaEjWhRn+nxwNKQf+Iwoxpa/Uencyl3RbMpAOQvIYBoYQIvsA5FcRE/dOBIbCdgUywT9Q54jPHr+y6OABKLSNzBCjN9ybVmASojv1Bu4r9UXhx1964nxVcrGMprWgZLrzIa4I1Qep8EekJFlvHrivqbAQoyyLoRtwiacvPSW2AYz0DQFWADjOYVSH6Ymzp5Hs6AIkOqOGDf7vm6S2dnjILp1XKSK/HkR3dc70oi5dhBgQn1WXDkKecoIwsAOS53rLDczwovxMDkQESk6KyJ7JUABI+lROyuV69h8BjIivm+Cn63S+30ttj9n2kPp1y7MiSnoi5PgJYSToW+jS9Lo4vTuymnzoRLgVWpi76PbBD3MspQ9sb1sVjqzzHgUgDp6y+QRlZAEi0S1IZmQHIU44FzGGdeZtnH2/cJ6/WBY/Mh2WEwCKgRTxS/5i1picdgGrmN4h0auvT++fIH2gMAKhmHl03T5o9QgeWXUu7tzQDQJ66yPuF0aywTqEu4/elPAZf30D7TwkN4gcT432Yxc81KgWAyoCTKkFHlWxpVyC4PltHgp962E8MPMJ2VsATwImB7D57V9EyD9T2mR9CXbTfDxKjP9Kv4i8zTgGActBYKQCUpzjiyqoSdFTJljh/YX/7AxV82B8+9E7yaemqHAbn7tBXhlRZ3/gih/4gH3FPiezoCBB+B6h9fwOACuicZUS80gbHKv0ydpqtON5+R4YPi/WhLwXWWuqnWDs7owMBQb35Z6hyHVLwZJhJk7F364cZ223b9D9DldGhBn4EMS+dlwJAZQBBGffIy+lllIMoVLuDEa4vQ6e4B3QGDUADndJAKQCEybh8gcPn5fu8U50Y90VbQwPQADTQvAYAQAWkwKrwo4wAoOY7AwYQ+AwagAaggf7RQM8AUBWgw3QcwEf/dCDT5nhHm0MD0AA00F0aKAWAyvgrjCpBR5VsQYfsrg6J9kJ7QQPQADRQjgZKAaAyGrNK0FElW8rwPe5RTmeFn+FnaAAagAby0wAAqIA1QJ1/BH0Z7T2pfq129K01dHEBdUQnzK8TwpfwJTQADUAD5WugZwCojDRb1wl03hY6cHqU3lpzcUf/l6zr/AZghF6gAWgAGuh5DZQCQEgJlU+2Cjrm0ZYDp+nQtmt6XsiArE5pDPeF9qABaKA7NQAA6mnKBwBhYOrOgQnthnaDBqCBojUAACoAgKoT8QIAFd2BUD4GaWgAGoAGulMDpQBQGYuCqwMdNaqSLcv2nqTGoW10TQGgh07fnZ0e7YZ2gwagAWigRqUAUBmOrhJ0VMkW6ftle+lko4G1QIBArAWDBqABaAAa0BoAABXQGSZPnkwDAwOVEBkiQPimV8YXENwDOoMGoIFu00DPAFAZabZua9xaDWuAuq/NMIiizaABaAAaKEMDpQDQ1KlTacmSJZWIiJTh1OrcAwBUnbbAgIa2gAagAWigShooBYAqtyamgLRXlRo1tAUAFPoCAw98AQ1AA9AANBBqAABUAAxVJ+IFAEJnDzs7fAFfQAPQADQQaqAUACpjUXB1oKNCj8HjrzCQdi0A8DGAhgMofAFfQAPdq4FSAKgMgVQpzdZ5W/BnqGVoDvfo3oEPbYe2gwagAQBQAd+Qp0yZQgsXLkT0oQDfYtDCoAUNQAPQADSQhwZ6BoAAHegQeXQIlAEdQQPQADTQHxooBYAAJ/0hJgwaaGdoABqABqCBbtFAKQDU+TUxEGS3CBJ2QqvQADQADUADZWgAAFTAOhVEvNB5y+i8uAd0Bg1AA9BA6xooBYDKAIIy7pFVaIh4tS7IrD7GefAxNAANQAPQQDsaKAWA2jEw67VVgo4q2ZLVfzgPAwk0AA1AA9BAP2kAAFRACqxKP8rYT2JGXTF4QwPQADQADWTVQM8AEKADos8qepwHrUAD0AA0AA2UAkBl/BUGxAwxQwPQADQADUAD0EBWDZQCQFgTA0FmFSTOg1agAWgAGoAGytAAAKiANUCTJk2i2bNn468wCvBtGZ0C98DgCw1AA9BA72ugZwCoSmk2RLx6v+NgcEQbQwPQADTQ3RooBYDKEEmVoKNKtpThe9yjuwcBtB/aDxqABvpRAwCgAtI0ACAMJv04mKDO0D00AA10kwYAQAUAUDcJALZiwIIGoAFoABroRw2UAkBYFIzO1Y+dC3WG7qEBaAAaqK4GSgEgpISqKwB0TrQNNAANQAPQQD9qAABUQAps4sSJNGvWLDwGX4Bv+7GTos6YnKABaAAayF8DPQNAVUqzIeKVv1DR+eFTaAAagAaggTw1UAoAjR8/nqZNm1ZoRKRK0FElW/IUC8rC4AMNQAPQADTQKxooBYDKcFaVoKNKtpThe9wDAyI0AA1AA9BAt2kAAFTAOpUyIl7dJjTYi8ERGoAGoAFooEoaKAWAylgUDOhAx6pSx4It0CM0AA1AA9XWQCkAhJRQtUWATor2gQagAWgAGug3DQCACkiBTZgwgWbMmFHoou9+Eyrqi8EZGoAGoAFoIE8N9AwAlZFmy+p4RLzQSbNqBedBK9BAl2lgwU46MrKHlk7uMrsL+LLfnnbX0tC5Ydr81c75sRQAKiMiUiXo6LgtF26g+rNn6Obt6jVn8dyejkYtfuUTajQa9mt0iAZn6o41ZxMNnw6PH94x0NP+aG9QihmM1g7RuUZnB6tC6lW5SSHG/8ZO2Q6hlpXuT9CepZO1phfQziOfh31ht8f0qAAAIABJREFUeDN91Vzbbe8CND536nqiWfAQk6xThhgrkvwi78t9ytpE2zS8+asdGENaqEshbe5ozIy9Qdv4jvvHjgU7j9DnwXXMz4XYHS2/FAAqY+DqOHSwBquOLUto1pYz1DIASZA6TpffcFEHOntUrHE6kgB0eAcNsDbwn7uYXvmkQVUHoOz1ye4jvz+auL7nAUhNLp2Z2Hg7qMnjxJ6lNNmn5ybaYe3QueSJ3ld+2fuS6hMBET2xJsFLrP0pfuXXRe5r2qeJMnh5uW+n2JHk05xt8Wssap8EnYYPKtW5iUCas818LAQAFeDcMiJevBHjtwFAtm8AQLY/zMCe4b3EQbVlG9vqywCgjvg9SVceEJETaacAKMnWtrSXof9Z5UcBw2q7Eu3MCkDCPnmuL9rjaWerPlbdm/VV8vmlAFAZQFDGPcpqlPzukwRAV9M3Hv40SJPd/NTr9PXpWixOCs2k0sT7dasfpEkZBTln0zCdPryDVol3EyaNRGrm0Kbh02HInqeuFr9CnzQO044BV8QCZEZpaHCmjExlj5gkAVCCHTV9v11v0ieiHqND9MwvdZ2s+iSVUaM0f3hTedJvPh+4Psn/sxywTLvJdyeMLQdall7wTUxycGPn8DSaZ6C2BlRx/MQe2vXOOamPE3s20ks6vWNFapx72NETNVkMb77LSg2F18ekFUR9ffVJ0r7rD+kz+1uv+iZs/MGP6W/Clr/1eXzS8PgsbrywfOnYHW+HmqhO7NlF78jU0Qnas/ElnYqy2z+pjJpsk2HafBdPY7Hrvb5S9Q3aJjIxOpCq2z04X9fRX+9kaLDrIuzgbaP6lijX1lbY58yxdSLqptsweq6jNaYveX/ezqa9jB+tdTIxdcniU1luvB21mjh2gvbseofOiXqc2EMbXzpCn4ttZq/RXFO+jtVuTH20D0zbuO1sbGjnvRQAqk5KKBRsO07rnmvjAEjDz+PP0lQtsun3HCULgsT+NlNgcsIXHcdAgl6LE6agNDCY47UaSQgwECTP90z+zn4vOLAyw/aKA6AUOyQAKfAZXKTXE4nyLUBLK0MDUKI/lD6zA51Pz0toy1tDNDQUff387i9nTmXKgY0PyO7gJT/zSUJP4HyQjJmggvZwyzTfEk0Z8nhDTjqLxFqBRoPEIGgNupF7qME9nHy0XfpacW81oLLJmE0KLQ+yrh3yM/eP574RH4r2TJ4MatonZpJV725dlC4sP+l+7q2/Y4e8TgLAIg2NonzlV+OfiA+dMhQACZAwtnn0IWyS15lzHD1rn1p1NdrQ9YnU0eN3pbd4v0bq4i3Drn+gYW5HQ2lVpi5df0iwYMd1OwdQIc7n/c20l3d/fF2kXUk+TbNDHxfgs3SRhlfh85gyI/6XdsfYJ8uw+4Txo2wDp22tY6z/mv15vAOAjNByfK/OjzLGAJAEm9/TxRexAccHO759TfhJApCBGXmdgoTRoUGaKT47ICMFLfeZ6A6L9PBz+baBJi/wsPrJ+8cAkFOe3w69dojbx6/j28ZH/NyaBqAkf+jr2gMgt86tfNbfAoOFtdGJyjvwOYOk9xzjG/HunC/8bl3DjssBUk8QfLDk22ZA5Od6gaKFCc6UHfsubLUmMDUJGGAwdoSfRbv4JgrfPtaGzCextmgfW74M/O7aFbUjvI7bwq/j28Y2fm6NFADZk53dLvq6pPpE2kndI4AGj4a895B1d+xL8kfkvv76cP+HPjP+cIApog9H//KeGgT5uXzbsTmEfHPPDD71lSf2BaDK7OZ+4PYFdjj9Ndgf42t5H1sTxofx7ebULbhHPvt7BoCqAx01qk7EKwaAZr9M1+onxHh66+btzoLnogFIRlB0mF9ERoKXASAFTCJiJGBqZGSEDoonuMR1DCSyA0MMAKXawa7jUMOhJ7WMsgAohwgQH/jMgGMNkjEDnHVdzDmmPPFulakGNGsiYcf5ACm39bdFeX6gG6ahAEY8dlh2moGUDfzcxqzbskwVoZKDemSwV+WHGg9ttScyj73cBuYTM3nEvVu+DMpItyO8jtuithXApZdRDAAZEOERI24X3zbtat55Xcw+8e5pd58+fPsCn/pAwC5XatanUws8FBysHTomxzrxZB/XetjOcXXR9UrQSDY7tI55neU297u6V6gV7lO/fere0TJEveSxoM/ysordLgWAyviNnupARxcAkC8CxDpz0NGKBiAOEL776+jO4R2raNPwQdqxahMNH9RriljEp20ASrUjAwClllEWAOUwYPCBz7SLM6h6B74s55jyxLtzvtCdVS47zgdIua0BiG8HuuX38EVZfPXzTYRWOSl+lWWGUCNAxxftsff5yvRPHkHdmE+CfTF2Wr4MzlHlJ9kRXsdt4dfxbV8dDKjY3/Z5Gwa2J9XH106e8wMNiPNjf5+H14XbbIOKtMt33xR9hD4zZTvlCrsTJ3hh3wjtWbqOho7toaXrhujYnqUk1hTZgCzKj6uLvrfHR5a/E+1gdnM/yO0ovETrHWefstmK3gWa1AAUkwILbGfn57WvFADKy9ikcgBApuPx95gIUC26BsjvW3V9MwufeTmpKbBadN0Mv15sy8jPwffoo4PiMXdx/kF6fdcwjZg0Wh4psFQ7MgBQahnZAUj6zbv4m7dtkdvOALtWhMjF5M4GQLmPT3Bq4LQGa31d7GTLB1jzLVDcxwyE8np1Tz55BhOeGBBlGS5scN84dQmu4baL85MHaKVLVUffAlnLppiBWp7DfRhznpxU4iYp5hO3r7if/ZOTZy2SY0d4Hfed2jZtmVoXp22FbfIat15J7RcpI66NRLucoJGRzx3oTNGBrndY31BPvja2zov1mbknAwl5rqd/eMoYfu89CT6TBXAdUw8AGJ+H7cvbxdyPvSf5VIOc1U8tO5jd3P9ym/V/fY3fJ1H75Hmx2o+eH9bV6JWvn2J1tWxvfj8AqE0H8oYy22VEvMy9fO9TbnuXBjwpLhtknKfAxPn8STDjFyddZpeRLLh0ABLXawji4WGW3pLprkb42z0KDsLPov4yAsSvF9usDHONm34I1iLJuibZkQWA0uuSzR++cjwLwU37FPWuB1HlM/M0jz0AqkkwjHp4B1UNQaHv7TLUwKjLGN5Md4nFzs0AkKi/ZasqK7TFM7jygZ37zy3H2BGcoyYH3+RoUilhPV07VF9xfZapLA4NEX+K+zCYc+tg+gUvw8CIOSbfwzLCSY37Tm3zyTixLh4fewHIY0twD09dwnZV/jTjX/wEa9pMa8zU2Wpbfo7wwzr1JBRfAyc0kACfoc+MXQwkIvphtjA7lD+dduBtq+HF1VjwhSG4TwgN5tzAp/IcXl9tS2AHs5u3odw2fVdpwZQdvAca8xwPjhn/sHd+H1YH07bK7+qJtLx/fbsUACpjfU6noSNoLF8DYl/mp4/gRzYwQDddo5voBGgmzHBCg7aL07bX/7n3Hz2xB7BQXH36RyvKp3Fgq/yggS0Jolps61IAqErpqf4RFjon2hoaKEcD/olRfaM335rRFoW1RUJkJvd76qiUHVFB27bq57iooFWejnoW4XMAUIvkaDUQyuiab+poNwzWxWjAk1aIXfOANsijDRRgOinAMsZiAUGxi63RttnbVvSZpC8IYSqtCPgRdgKACugwiHhhEMg+CMBX8BU0AA1AA53QQCkANGnSJJo9e3ahUYIqQUeVbOmEqHBPDGbQADQADUADVddAKQBUhhOqBB1VsqUM3+MeGOigAWgAGoAGuk0DAKACUmCTJ0+mgYGBQiNe3SY02IvBsRMaqNcvorlzZ8a+Lr/8QpoxYwZefeoD8YRyJ3SJe1ZjPOwZACojzQbRVkO0aAe0Q1YNHDmyicbGtsa+Nm36IdXrdbz61Adi3siqJZzXe+NOKQA0depUWrJkCYRWQLQJnbL3OiXaNL82BQAB7pIAFwCUX1/rxnGrFADCmpj+Flk3dgzY3BuaBQABgABAvdGXixiTAUAFRGUQ8UKHK6KzoszmdQUAAgABgJrvN/0y1pQCQGUsCq4SdPRLxGvZ3pMU/A+M+Y+d0bdozcW6w83bQgdOh/97c2jbNUiDtg3cy2jvydCno2+toYvbLrN3B8gQgO6lxf92HI0bp15T73mQToxtJbkG6Luv0CNjX9D2hno98/a2mDVB36Ol+/8rbT/7f9KPlxcAFo4dPntufvU/BXYWZkcl1gPdQi8dCnVujzNnafipfPxfXgpsPH1/xWo6s/1e2nY53865702aT2+/sI4++6erqca3MUZ4555SAKgMmqwSdFTJliJ9LwHo0Da6JrVzqUm76gCUvT7tDFp5+WIebTlwmooEoHlbDtBpDrSp7dyOX4q5VgLQ/tvpW/9mHM19crNeDK1gSHy2F0GvovuPfkGdBaD/lzb86sEYAAsn/Ws3/4meKQrEcgOgNH+G9UmK0tSvfYyG/vA5Hd97b6pfEsvx1Kt0AHp+MT1c0wAkt3PWvYSex+jDZRdpANLbXdh3i5y7TNkAoAKEMWXKFFq4cKGXOI3je+E9OzDkNennPFg4bZ+9Pu3YkZcvAEBZ+tCRI/9M67/13zH40U+E7ZpN/3bqdfTjn/KnwHKasD0TbaaJWUaAAEARX/UEANVo6sJldEZDD9/OouPM50yYSS9t1tDDt52xLnN5PX5dzwBQGWm2bhGN/OZ+aButFN/gTWoqEqlRE2gQWubf9JftpZONQ7TtGneiF5P3KL215mIJd9mBIWnST7Cjpu+367d0UtRj9C36+TZdJ6s+SWXUKM0fsh7GT9a7zweuT+zPbllhhEb5IPA3v4+pi/R76F+ltzjQiduv7LHtaK4e0l/cvmDbsU3ay9IUph5y0FT2Hdq2UkaqTL1Df9h+K6pvHdl2pQSd1064j8KLKNA3aNHj2QAoLfUkIzKfnaFlIjKjU2nbPztDd1kwpFNo5rgbwckLgJYcpp+ZezTsiJay83+nh0QqTx57W0a9tjcc8Eooo14XoCjO36avFalDfr0CSZPCs94jPskQBUoEIDdVZqfHrn1siP5wdpieFe9Gx58fp733qvs2FQH68g306K63aOdDcwr4cjuR1j8swOXvaf3D6+jMC+olU1myP+mo0QuP0hv/YPpO66m08XfsppFGg/707voC6mLsq/57KQDULxGRogbxZssNJjAzIem1OGEKSgODOV6rkZwwDQTJ8z2TprPfnmT1RMjKDO2OA6AUOyQAKfBZs0ivJxLlW4CWVoYGIDH4Gdsi/lAdVdbHnNPCNx/pd+PD2OvjfCFsUHWxIMGqKx9QPOfqe1ptWTP197RnrI3qPon1icCa2w76c6NBge4i1/D6+LbvoJ/9yxANDUVfz97ztUwD9xuDX6Hz5HqfR2UkSK0B+g90z2sP0/pvXZwZgExUIi71JPcL6DATvF7PE6bTNPyY4/U6SajiEORdA8TBIoSFODvqElzYNY4dxk5hl4I6ce4mubbpuY8/oH8QwJZShgIgG3oidZHgl1NELRaAFPx8fnwv3atBUwJPI4Qg9blBjbPD9JQ8x76mWgAkoCdMWU2qL6DDPuDhUSS5psjXd5L3AYCUf0oBoH5ZExNO+MniK/q86MTlTJYOyEh75D7zDV9HXkSkh5/Ltw00ZQKGmEnfKc9vh55AuX38Or5tJnR+rgEAC0wcf3BwyFQff/sq8DQ+9J9T01AXQIGxWb+7bRcPZf46qPJdG2L879zb1aVrCz/utcuCNZ99al9c3Xn5+Wz/bzQ480t0z2tP0f710+nfzF1MR8dU5OfJowKIJtDcH/+ArStJn7DjwCO6XwFPABUSRP4rPfx4CDF1uc+FFfZZT+oGvvh79H6qXAEiwT319RJONHjx6/h+fh3fNvfk5xoACuHOQJNTPxkpsiNQprym3uMA6JaX6BCDHVWmApyzw0/JdpUAxCI+4hwTFRJAVDUACiM+YvwwUaGLGOyLfevoszU/oLctOIobb7A/aSwBAKVMAknOizvW6YhXdOJyJiM5UbHUhQkNN8zEGU5UoqyRkRH6QDzBJa5jIOGdBL3+jJmAU+1g13Go4dCTWoaOgDC7vZGWpoAuflCRvg/86Yu6sDrF+sq0gzjXbLv3dNrUlCV942tbFokx56a8R3VkbEi6t7HXd45vnynT995uBEgA0DdJwY5eByQWRJ93Hb12QgBQzhEgHs2pOwDkpJTCtBADHheImgYgJ8XG0mAmMpUOQOllVAWAfHBTr19Ljw39gUxUyHcO35cOQNNoxdZoBFJFJd+kzXf6dNvKPg024umtoF/69tXwdFfgn1b8bF9TCgCVAQRl3CMUpu1Ed3+nI17RicuZeDhAxIhJwI1av/EBbVu5hQ58oNcUsQhJ2wCUageDBXmunlz5dXw7pi6p/tDXZa9PcvsbPcjyLPAS17E6xdgrrpNpMAF3zN+mXPXutGlQVhI0ZbPb3Cfqt/B6r68kjBro89mXXndz73ze/5oW/a8z6MmjIuoj0l5P0Zhe/PzaiebWAJmIBQcIs09GFSJPZTkA5IsAuYDTNgCptJobAYqzk0d1eNSHb/Nrw21PpEwCXndEgG556VCQEksHoFDztcLXAOnH101f9i1iNvuWXxMudjbn453BI2u3BL+UAkD5DGbJFeo0dPA6dtqW6MTlTkbqc7AmxiMQUcbIB+/RoQ/EY+7i/A/otV0HaIT97ox3EvSUFT/pp9nBJsw4ANLrZtLqYj/O7fpDaUv6zbv4O9SeOoetJ/LWl5UXAaC0Otd02nFURt7MgnOuL7Xtr4M45gevsA6mrNS6SKAxER3n+sgx1Vbh+qWofVn8a2zL591EgEIA2rX4f6RxIhUmQGjuYnrc+i8wz8TuQErLAKQjQiYSE8JEQkrMuTe/Js6OyPodpwx+XRwApZWRPQKko0ls3ROvg9peQU+/JiIsr9Gz99/A0pHML3EpsLq9nkeUJ+GGpbx4tEfeT5bVIJMiqzIAySfFrDU+KiJ0esN36R9rNYquEXL6aMLYZNYANY6/TLcnnJdPP8xuV9n3AwAV0Pid/lFGOdFYE290MjJpIPN0jnzn18gJLkybmMmSr9+QE22Q7tFpF1aGuca6R6Ph/HaNBgJeTlBGFgASnSupjOwpsGg5JpoRduCgTp7ITNQf0etlB5cwx9JUkbJ0fQI/hPeXaUjuK7PtlJHFlqS6mIHILseGoeB6bUMIP+ltYsov9j1cAyTBZ9w4mnrPLXSb/EFEFRESvwMkoYCni/R2GElRYBSmrcyPJoYRDw4WamJ3IkASRDzpJZ42kxEgU3b4Hq61SbdD3tuTbjNlcDtjAUjYmlBGdgCqk1rnFNYlCoDtAFCd1G8Esb7E4Ef4QgKQ6SPy3f49oaoBkHn6S75bvxOk4Ef9kKIZD3xPhpljKe8TNtB+6Y/j9PLtKecWMEcW2++z16dnAKhKKbCqNC7syN4RquUrH7B2W12qUYfwKTD3MXj12f4hRBZ1cCInCmpwvNv8EIkAOe3aFAAVCgIx630Ku+cE2rBfgCMAqOm8WbOTBX6jp9smL9jbrMbzPF9GVnzRn8IGwyLauxoAdOSNW51fgd5K+9dfQfeJ9UDmrzCcSbHbJnnYGw+mAKCYvq0jQPgdoBIG1U6viclzckJZMR2qBB31uu/DdFNM6qyrfFwRADqyicb0X2GY/wGTa4DGEAHqB3ACALnj9Xi6Y/eI/A/HfocfMZ+UkgLrNwBCxMvtdPjc6/BW1frt2fMgvf/+47GvjRuX+hfeIirUF36pTgoMY2QnxpBSAKiMRcFVgo5+A75OCBf3xICZhwbOP//8vpjo+yHa00odAUD9PY6UAkB5DFRpZVQJOqpkS5rfcLy/B4B+b/+LL/47+v73b0x8fec736bLLrsMrx70wVe/+lWaNm1aW68vfelLha+j7fd+WlT9AUAFrKsAAAEqiuqwKDdfbd1994BcDC0WRMe95s2bgygRUoKxGkAUKd8+WeYYBwAqAIDKbEDcq3s7H9qu820HAIp/gqqVlFI/XgMA6nw/bnUsLQWAhEBmz56NMCFgCxqABiqlAQAQAKhdaAMAAYASBzWkhLpXIK2SNa5Dm3eDBgBAACAAUP+OVaVEgPoNgPol4hX+bg37KXr+A37OXz7wv9Hohsmxmjaqvwcxfy9i//1EfgOZ/TcX7f4ukW1z0v+2le1zDkAHnziPgt8K+stv0JMH1LogsQbo1lf/Ez0f/F3G/0X3LogBh1Uf08/++AX9/J0dNK+AdTO2HeYvJrg9u2ntGbO/ODvahYbcrn9kH402jtPe5THt0VQbPEL7RtlYdnwvLc9wfXkRoC/Roh+tpjPb76Pt3+bb+fV72f8mXENDL6yjUw9dTTW+3YPR654BoCpBR78AnwQg5z+o/BMY+0+vCnei7PVpZ8DJyxcl/dCg9Q/vrdRb2RkPPXn5oxXbaqQAaDPtWvLXNG78dfS6XgwtYUh/thZBb/6cftHgwOFMvGUA0OhZumvAuW9kol5L9x/9/woDsdwAJs2fkXo59c4NgJbRzo/OUiMWehQcHd+7PLIYunQA2raE1tY0AMnt1rTvH6trGnoeo49+eLG9XeGxO7YuKTaXAkCtGtfMdVWCjirZ0owPmz03OzB0dpLLWq/s9WlnwMnLF90CQGn1TTvejq/TrxUAdHTXHJrA4Ec9DfYEPXHZ/0Bzn3ycmgKgtAm7zeMyAgQACiEkNwCKBxwFe/HHywOgGn15wVI6o6GHb2cd4zKdN/7v6cVNGoD4dgpMZCq7YmUAgApokE4DkExfHNpGK7ccoNPmn5AjkRr9zdwc56mr2G/9YrIK/xE8OzAkTXIJdtT0/Xb9lk4KO0ffop9v03Wy6pNUhv43+AR/yHoYP1jvzad+3LLCFJXygUldWe+mLtLvoX/VgBIHOnH71aRv29F8PYLBLFYLNao5Kc6wrhw84to+gz8K6JtBvXTZd989NwAd9zF4EQUaf88/ZQSgtNSTishsePlZGZkx/yy/4eXvh5O5gCMdQTLH3VRaXgC0dP//Q+Ye262IlrZz3x9kKk8ee15Evb6g7Q54xZdRp7qI7Ijzt+pr3etl5CdM1YW2fEERnyRBYxYAWraTPjobprY+G36KFkTKjAMctd/qr2aM0NGipgBo4vX0yK599OKaqxPXzbo6zfZ5Aj3+EwEuf0+P/2QdmX+Wl6ksqXcdNXrhMXrzu6aPtpFKu/1lOi58sf+nNL6EvprNB6Ze2d4BQAU03Pjx4+UPaxXRYFnKDNZvmIlVT1ThGhwNDOZ4rUZywjQQJM/3TJrOfnuS1QMMKzO0NW4STLFDApACnzWLttCB0w2SqRRrUk4rQwOQ6KjGtog/VGeR9THntKCLbH9iGucLYYMHaqy68k7tOVfbbLVlzdTf055Z6hh3/4gPVb0CCJLXhZNOOIG4gJfkD15f//alD7xAQ0ND0derj9FNGep39w8uoyXnqfU+MhI0bpxcB/SXcxfT0K45NDMzAJnUTFzqSe0XE72Z4NV6HpZO0/BjjtfrCqo4BHnXADlgoiIWcXbUSYILu8a2w9gp7NJQJ859SKxt+r/p4SdulsCWXIYGIAt6onWRdhadAtPwE6auFNAEECQByqfTz2j4qQUMTuMAqU7VAiABPjp6U6vRhCsX0Mc+4OFRJLmmyN+/wjHccxwA5HGKZ9CZOHEizZo1qwDiDe/faehIFIrHJ0WeH52IncnSARlpi9xnJicxKeltfi7fNtCUCRhiJjmnPL8dDZLgxu3j1/Ft42d+rgEAA3fyHMcf+rpcAKhhfBhq027rGF9oG9y2i7fJX4eaiZqtuZj1t+R72vY5dscAkLTTaXvXdlVu2r3Tjjv2mDbO6f0HN02j8+YupgNH76MlE/6a7nl9K5nIjwAicew7/IcQUyfsOPDw7JfAE0KFBJGPD9J1LDoh97mwwj7Hr8Xx3E+WK0AkvKe6XsGJAi9+Hd/Pr+PbBvz4uQaAGNzVNXg59ZORIisCZcrL+J4SAVq28yM666zrkfs+G6anrIXs8YCjfBR/vGoAFEZ8RN8xUSE+Hoh96+jUmh/QkAVHxfa1xHEmp/7c7D1KiQB1OiXUrFO6/fzoRORMlqnfztX5AjxEWSMjI/TBtmuoJq5jIBE/ObsdKWaSS7WDXcehhkNPahk6AsLs9kZamgI6t37hZ+l7EyJv+KIurE7eTi+OG4ji2+E9lD6dNjVlSd/4vtFqkDTnZX2X/o3WQ7Z9UE92P8vPwuYs9W3RtlqN2o0ACQASUZ5wHZBYED1Brv0R+/KOAPFojkp3hTBip5RYeogBjwtETQOQk2KLpp4yAFBqGdUBoEf2jcp/Pg8jkFqrpQLQZLr7GU+UUkYuf0tblrh9u9XPGmzE01tB//btMwud9ZNewbmt3rd7rwMAFdD4EyZMoBkzZjARliuQVADiABFTfzHBHdq2krYc+IC2rdxCBz7Qa4rYt/62ASjVDjZ5ynPTo1Jhxw99nuoP7YPs9QnL9t3P7JPlNQ0EKh0pU0kCPpi/TbnqPQaAvBGgbPba5etrYgBI+jTWNn4/1oZeraUd52Xlv33nVf9ervMRUR+R9jowFi5+NpGg5hZBc4DgUQzP/gwRIBdw2gYgmVYLocstv17ndvKoDo/68G1eR7btiZRJwKtABChaZ2F3fIRHnR9/vNIRIN8iZrNv+TXhYmdv38y/v3nHmA7eu2cAqIw0W9bG63TEK33CV5NnsCbGI0BRxsgH79GhD7bRNXJtygf02q4DNPLWGrpYn58dGOImuTQ72HVxAKTXzaTV5bQFIn54kH7zRm3CgUCdw9YTeXxndBJtB1FOWp3N4uJRGXl7y0plhXaYcoI1N8wOP3jxa9V2prrEAJBZAB2uK4uWr/zA2pDZaHxk6pHUfuG5cfdofb+JAAUAdHARXTZOpMIECKmUWFkAZBZAh2uAGFDotFj7ABRdA2QDQRYASiujiQiQjiYl1fn6R3bINV5vvfxTupOlB6XdKSlL4nTFAAAMR0lEQVSwemQNUNSnaYCjjsc/Jl9lAJJPillrfFRE6PTG79Kt3jVCTfQlswZoZBfd8aUmrvOOA525vhQAKiMi0mno4IN0p22JTry+CV9PxDyNwSFBTnxhasJMlnzCkxMtv15sszLMNW742Z60k+xgk2csAImOk1RG9hRYtJxo6ieokyf6EfVH9HqpE1kXljaKlKXrw3wZ6Eu3i+tTFyCy2BJfF48/ZTub1JwerNx6NBpkt604j7Vh3MDnlhPxR3GDY7AGSILPOBr3l9+gh1aqH0RUEaGtNG/eo9aTW2HaiEVS4p5qCiIeHCz0JOxEgORE60kv8bSZBKDgBxlNmoyttUm1Q907mm4zZXA74yJAaWU0AUD1uvMjk+EicQUedUoHINaXpE6dBczOU2Ci7wSLoAOgio/wGDsMTAV9r5JPgYVPf8mnwKzfCVLwo35I0fQp35Nh5lja+3p670/C9yO0644vdSzjEYyNceNLwv5SAKgdA7Ne22no4HZWyRZuF7bTOnRVjisAicJEVezrHTv4U2DuY/DmsxUBCibMuEgC9gfA0Ce+aioClDAZtz8+x6z3KfCe69/7EwCo/YZrf0CtEnSUEfGqgs9hQ/u69flQRmZ80Z8CBzKfHf2w7+6750d+BXrs6H208k6xHij8K4x+m9RR3+wg278ApCNA+B2g5ImgDCAo4x79MCGgjslaLtI/YdoqJnUGAMo9zG79FYb+DaBxcg2Qgh8RBUIEKDsM9CM49SMA3f7ycfV0XRfDjxjLS0mBVSk6U+QEhrI7Bw/wPXzfiga++90r6f33H0983XDDNewH8QAD/Qg5SXWuDgBhDGh2DAAAFfCtGj/KiI7YbEfE+dXVzBVXXAEA6pP1PEmgE3cMAFTdvps2rvYMAFUpBYaIV/d2iLQOg+P917YAIES94uBH7AcAde+YUAoAlfEbPYCO7hUhoAJtBw1AA9AANFC2BkoBoDIqBQBC5ylDZ7gHdAYNQAPQQG9oAABUwBogdI7e6BxoR7QjNAANQAO9q4FSAKiMRcFlpNnQEXq3I6Bt0bbQADQADfSXBkoBIKSn4kX19flL6aH7b6NvT40/p7hOOZe+OfgHuvmp1+j8r3Xi/rhncW0L38K30AA0AA0kaQAA1NEU2Ndp/tKHaPn103P/gbekRg+PtQ9A0+85Rjc/vpWmdNSP6ORhm8IX8AU0AA1AA1k0AAAqcuK+dAGtHlxO10+PEWPa8SJty6nsZAC6hL577yD96MYZHQK8GL/nVPcsHQznoA2gAWgAGqimBkoBIPE7CbNnzy50Eqxamk2mtgbvp9u+PTW23pcuWE333/ZtmupOyHN20bXbz9DN5uVLUSWdc9HPqP7s7+miby6lS5805YjPoQgluCSUP/V779INj2+l88S75zzrenNcvtv3qZ03lxb/0yCtXnQlfcWtJz7HagMDZqhV+AK+gAaggSI0UAoAFWG4W2Z1AEiltQaTIj9i4v/6fFr6kAeQJLwcp8sHvhk/OUr4SThHlqHAZ85dCjzjIjUSdDyAJfcLoAnSWwqmrr1/NU1i4BJXrt0+KhI0uHoRXfkVdGTbN/AH/AENQAPQQCc0AABik3n7DXApLVg9SIPLr6fpKeXKCJHvPA0vLmiEtql1O/HHa1TTZRj4Edcmgk4cADn7TVSIr/fJBkCic59Hcxf/Ew0O/ohunIHOHrYnfAFfQAPQADTQCQ30DACVkWZLayCV9soCQAKUPNEfA00sgiPSYBxkajUVibH3OZ1HXp8QITL3aRKMfBCVHYBqdMl376XBQaTD0nSE446emV7hG/gGGoAG8tJAKQBUnfRUGcLJkAITi5+zPvoeSXdljQDlD0A+2PHti4oTKbCoT8rQIu4Bv0MD0AA0EKcBAFBB3y7jF0E3+ei7J5qj1uckAI7nmjgB+KI64tzIfh2VciNPyhZn4TP3KRZBx6/l4n7CNvwEDUAD0ECpGgAAFSk432PucvFzwqPx7tNdkRSYonkFHuYJrzP2jxmmAhB/OoyVsT0EmUj52+OAS/+WUPAkWFhGrYbH4OPAE/vxrRQagAaggc5qoBQAmjx5Mg0MDBRKdlOnTqUlS5YUeo88xBr76HuRINZC2ZEIUAtl5OEvlNHZAQL+h/+hAWigVzVQCgCV4byuWGcU9+h7BeECAIRBr4x+i3tAZ9AANNApDQCAKggfnRIDvy8ACIMS1wO2oQdoABroNQ30DACVkWbrtcZHfTCgQQPQADQADfSrBkoBoClTptDChQsrvz6nX0WAemMAhAagAWgAGug3DZQCQF2xPgepMAAqNAANQAPQADTQNxroegCaPn06zZw5M/HVb1SL+uKbHDQADUAD0AA0kKyBUgCoyBTYBRdcQPV6PfZ1xRVX9A3NQuzJYod/4B9oABqABqABo4FSAMjcrIh3ABDEXISuUCZ0BQ1AA9BAb2ugRwBoA717qkGNRoPG3ttIN7GIECJAvS1gDFBoX2gAGoAGoIFWNNAjAKRTYCt20+FzY/TexpuClBgACB2jlY6Ba6AbaAAagAZ6WwOlAFCRv9Fjp8BW0O7D5+jI7kUAIDzJgLVf0AA0AA1AA9BArAZKAaAiH4MHAPU2oeMbGNoXGoAGoAFooAgNAIBAx7F0XITgUCYGMmgAGoAGoIEqaKAUACryn9rtCFCdNrx7ihpHdtMivRAaa4DQ0arQ0WADdAgNQAPQQLU0UAoAFdnoLgDJ3wTa8C6dajTkWiAAULUEV6QWUDbaGhqABqABaCCrBnoOgBABgvizih/nQSvQADQADfSvBnoMgPAUGDpz/3ZmtD3aHhqABqCB7BooBYAmTZpEs2fPLmSxrZ0CAwBB/NnFD1/BV9AANAAN9K8GSgEgPAbfvwLD4IK2hwagAWgAGqiiBgBAeAy+kMhcFcUOmzAIQwPQADQADRgN9BYA4a8wADMAWmgAGoAGoAFoIIMGSgEgQ1tFvKs1QPgz1CJ8izLxTQkagAagAWigVzXQIwCk/wyV/Qu8/D2gep3wO0DovL3aeVEvaBsagAaggdY1AADKECaDwFoXGHwH30ED0AA0AA1UUQOlANDEiRNp1qxZheQk7cfgo5EgRIDQ8arY8WATdAkNQAPQQGc10DIAfeUrX6EZM2bEvs4///wAeIp8DH7atGmxNhj7ILLOigz+h/+hAWgAGoAGqqaBlgHowgsvJLPOxvd++eWXlwJAVXMo7EEnhwagAWgAGoAGqq8BABDWAAWgig5b/Q6LNkIbQQPQADSQjwZKAaDx48eTSFWh0fJpNPgRfoQGoAFoABqABtrTQJsAtJn2n2lQo9Gg0XfW0wB7DJ2nwNBI7TUS/Af/QQPQADQADUAD+WqgTQDST12tepWO/nGU3lk/EKwLAgDl21AQPvwJDUAD0AA0AA3kp4F8AKi+il49+kf6+Fe3egFowoQJ8kktNFx+DQdfwpfQADQADUAD0EDrGigFgIp8DB6N33rjw3fwHTQADUAD0EC/agAAhKfAsDgdGoAGoAFoABroOw3kBEB12rz/DDU+/hXdqhdC8zVAiADhG0a/fsNAvaF9aAAagAaqqYHcAEj+GOLm/XSm0ZBrgTgAFflXGBBWNYWFdkG7QAPQADQADVRZA7kBUFIEqMoOgG3ooNAANAANQAPQQP9pICcASn4KDMLqP2GhzdHm0AA0AA1AA1XWQCkAhF+CRieocieAbdAnNAANQAP9p4FSAAiLoPtPWBhM0ObQADQADUADVdYAAAiPPvbdo49V7pCwDRMGNAANQAPlaCAfAEr5KwxEgMppTHQa+BkagAagAWgAGsimgTYBKNufoU6aNIlmz56NSAOiTdAANAANQAPQADRQCQ20CUD6z1DZv8DL3wOq14n/DhBoNBuNwk/wEzQADUAD0AA0UI4GAEAg8UqQODp8OR0efoafoQFoABpQGmgZgMS6ngsvvDD2dcEFF2BiBVxBA9AANAANQAPQQCU10DIAgSDxLQIagAagAWgAGoAGulUDACCQeSXJvFs7FOzGZAANQAPQQHdoAAAEAAIAQQPQADQADUADfacBABBE33eix7ez7vh2hnZCO0ED0ECRGhh33uQ8HbyaLnv2DNVv/wYmVYAVNAANQAPQADQADVRWAwAgiLOy4iyS/FF2nl98UBb0BA1AA92ngQoA0OV024ODtOzar2AiBoxBA9AANAANQAPQQCka+P8BBze/rFa9GfoAAAAASUVORK5CYII=;" vertex="1" parent="1">
          <mxGeometry x="260" y="160" width="257.43" height="160" as="geometry" />
        </mxCell>
        <mxCell id="WUKZvmKu0vjh5GC4oTGp-10" value="El servidor provee el codigo en js necesario para crear los elementos que ya existen en la base de datos&lt;div&gt;&lt;br&gt;&lt;/div&gt;&lt;div&gt;de momento imagen y posiciÃ³n&lt;/div&gt;" style="text;html=1;align=center;verticalAlign=middle;whiteSpace=wrap;rounded=0;" vertex="1" parent="1">
          <mxGeometry x="30" y="160" width="210" height="130" as="geometry" />
        </mxCell>
        <mxCell id="WUKZvmKu0vjh5GC4oTGp-11" value="Proceso para guardar los cambios, es algo mas complejo, se planeta utilizar un string con formato json" style="text;html=1;align=center;verticalAlign=middle;whiteSpace=wrap;rounded=0;" vertex="1" parent="1">
          <mxGeometry x="141" y="350" width="302" height="60" as="geometry" />
        </mxCell>
        <mxCell id="WUKZvmKu0vjh5GC4oTGp-12" value="" style="shape=image;verticalLabelPosition=bottom;labelBackgroundColor=default;verticalAlign=top;aspect=fixed;imageAspect=0;image=data:image/png,iVBORw0KGgoAAAANSUhEUgAAAVEAAAE3CAYAAAAT23IFAAAgAElEQVR4Ae2d/W8c13nvB8gP+QuEAfqDQUAICLi9EpBFyUtEqBgCFh1HEW02YMxbiIzR8LI2G1FydWnDufI6NlWqpsrEuQIlJ/JdxlaohLymSjugHAtauqG7RKiIpGgvfc1ItEIqm7LWXpZqJ46tl+/FzO7szu7O7AtnZnlm9vsDscPZeTnneb7nM885Z/Y8kqIo4B9tUIoGFhcXMTU1hXfeeSfnT92vfl/K9Xgs9edlDUhXr16F1/5u3LgB/m2NDebm5jA7O4vf/va3pj5Q96vfDw8PY2JiwvQY+m5rfEe7u2N3QpRALgl0v/zlLy0BqjdSFaQ/+tGPCFFqqyRt6frx2ichSqGXJHS1C1+MyH/4wx8SotRWUVopRk8iH0OIUuglCZ0QdadLKDIkWLb8PidECVFClBooSQOEaiZU/QPRS3/EVyRAUv/2/hFzbBiuNAxGopkNiEChPcoL0Q8j+OF//68I/PUP8WsbbwVYC/f3uDZ8WxCILuLVtvtw33fecgVm1jZwV9SmEL0ewauHWxGoktDzRuL+HBN11w9b5X/eN9evZYXor//3t9D+aKuLEL2BG2/Yheh/oucvGclaNRYziEb+sQHS3n5ErqUFRoimbWFlS+73h43KB9FfDeFb9c9g9GfBrYPogoIj37iH+9Qu/zbg4e8oWNS7/Zc+Qc93/oDIG5/hS/qwwGaGBt7ogSRJ6b/D41mR6CLGv5OI2tTjtlV/Ca0vvIVrejnUz+lX0fPwF7BNvU5VAzpPTBq+H0ePdACvXjyBzi/fp91nW/XD6P3Ftaz7uCNQM4iOH5YgZdWTEHXH/gSveHYtE0SvYPjAX6D7zBWo0ah73fk8kei1/0TPF+/hwGvrCdhcu4UTfwkEgv+RCZ8xu5Fs2slzJ76SA5fF0DczorZrixG89c5iugwf/gyd2wI48NpcYt/iJPr/8j48fCKSPEaFqATpy0cwvpC4V+Slh7FtWw/GjSDOt/3eGP5nTx/+Jufvf+Gn76XLb9ZgCdH89jGzGff522ZlgegH/+cZ/MWBYVy5ehW/Pp0foh0dHcj+y/5FVV5RWnTntbHSB/+IiBEuKjC33cZbxn0W5+e9p/F8w7YlRL98BG8tmgtLO+cbP0pHyOr13ujBtj89kixnAqKdw4bI89rP0Cl9BScumV9zM2W3OocQdd/GVrbnfjFt7z5E3x/FM/XfwtCvEj8vLQTRWCyG7u7u1J/6vxMQnTtxNzFzb+yqa9u3MyM4lyF640YEr3Z8Cduk+9DQ1oufXTLA8MYNmHWNb1w6ga+kIKlC9Cs4MW0UVHLfFkD02qVXceCL2/DNkCGavnED7M4b/cNtPz8AXIboB/inZ/fhW6cjKRAWgqgKTBWcTzzxhPaZDVD1/7wOsYCgBtG2TzIjPEPUmLqmxfmp783OsdhnFommrjM3jhOHH8YXtm1Dwz9OpupUNEQzgFkiRB3pzs/hxF517PdLePjFrDFdQjTlz5S/LTTC773/gHEZohMIBgIImP59Cz9MRqdmoDSLQPXj8grPCoJv3Ma2P/0ss+tuJmyr882OLbAvL0T1c39xBH8mpcczLbvz23oM3fnsrnuJENXvvYnPnO78wlvo3Suh4R/1MdtEo2Ak6n045G1nm9COX6/nMkRzV4gqJhLVYWn1ae2MNVx77TakBz/F5LXfZ0UD/65NJDUE/xOL11WB/x7XFm7h1Tc2Mo9791N8SbqLE9PJ8699nPl9CeIxg2jkjVcxOad34a9h7tQ3se3L/emx2g/H0fPFQhNLAkHUYgiCECVErdupv2zjG4iOH07+WilrzFN/+Vtz6If/gROP38UXtiWOve+Ld/HNU1kQvXETb72QPuYLbZ9s+tdPphA99U00VG9LvgJ1HwLf6MHPMsY3b+DGwjiO5H3FiRCtlAbKeooP3LJD1Cq6LGW/V4RlBlGvlN2qnDnd+Rs38FbwzyD9txOY0yL8hOgZiYrf+K18zP2l+Y4QLaF7XpK4FidNxwpLuoZbZbNxXTOI3vhwEiceb8AXtvFnn173L8tfGkBVexGiNoCSIzjtVaTkr5WqAmj9znjhtwGcvH8ZrmUKUZP7MhItvTHm6MnErjxGPLsSohRqSRNnhKh4jZhg3VqfEKKEaEkQZXqQrW2wBKZ49idECdGSIMpEdeI1YoJ1a30ieTlVKcu+Nal2mTJ5a+xOvYtpd0JUEdMxbDD0CzXgDQ0QooQo2Fi90VjpJzH9RIgSooQoNUAN2NAAIWrDeIwMxIwM6Bf6pZwaIEQdhmj4SDo1SHDSO2JeHmqC1BzCssP2KKeYeS/v6M1PvioDRFcxfiB7Obx+zPi5sW5EMbhPQl6ITvWhansnxlZcEP5SCE3GPE/adhNCS9b3cgWiH/0YjzzxeTz3KwXKr57H5574OoY+MinDb36Kx//H5/HI+Ee53cpir+FnPbFuuboQyCZlgehIVwD90yaNRyBDOPtkXEaouQBEy1H3xUE0SU0YXCxse1cg+q//hMef+HMcm9Mh+iQm/l9mWRbPP4mGQ3+Nx56zgGgR13DWd5nl47Vpj0IaKANEZ/DSri6MXK8kZ+SBaEaUGEQ4G6aTQUhPj2F2qBuN29WhARnVLQOIrBntF0P4aDtqU9/3IWwW0Wr3Mo9A43MhdO+pSl1/YqjThe78O3hOjz61iPJ5TGbU9yOc/cHzmLihYPKUBUSVQtcw2oXbhRo8v3deI2WBaH+gC+OrzhdeXEHkgWgSIvE31dTKFhCVJDQeDSO2oUDZiCLUKkM+Ek52aeKIfLcWtYfHsKx+r8QRPd0CuaYPkQxAKVCsIBqfQI+8E92jy4lrLo+he4dkCtHI0SpI202unX0v0/+zAPi3z+eWMXle0RDNcw1x9VBJ2q+8uroP0bWLeHZXeky07sE29I4uYt200fnFAYUhqqgRpyVEuzERT9si/mZ3GnDxCXRLTQhldNHD6JFkBKfS52hAsYCodr2GQUQNPoieqE/fw7C/XGCyhmhWnbagbOWyAe/jTV+7D1FV9DfXUwPDa5fPoGtXHZ76+Vpqn//EYxOi+0IZgNOAq8+cZwwHpN8EkCSTMVgLiGrjnwcnEDcAyZUxUcP1C/mYEPUmQAr5tRK+Lw9EsxrT/Mt7ETg+Q4haRaI6MHW7qVGrvk8DYyfGYkU0OkLUxxorwv+6fvjpqg62DKJ1PyBELbvzOjB18RshqoQRlHeir5i3HSwgyu48AVQJEWK56ug+RK/PY2YpuzvfjJdm0vvKVdmy3Sc+q70n2nMubvkEjJ9TJ5Z6MJYx664go+tuClEF0aEWVD1kmJGPxzB7Lpw5BKCea/WKk8nEUk+NnI529fuW8dN2d14bYy7y4VLGepVNc6yTZVtz2wfuQ3RpHE899gDqtNzzdXjgsafwyrurW1ZhVw2qRX6Z45TqWGWqK64oMP6iSfsu+VJ86sX8jKgzGTHl7IsnXoG6X05kDd1ei6aO4TRETcuR+apTfG4Q7dr5yVeoLvRhZ3YErCiwNztffMRnF6LamK5s8rYD4eLPtiaQX92HqECVdRWgrOeWNtbw0xJ2Ho1saRmor+Ifmn6yFSFK+PkAPFEMNjRicKEyG7GfgOTFuhCihKgPIEp4ehE+fikzIUqIEqLUADVgQwOEqA3j+eVJynowkqUGNq8BQpQQZRRCDVADNjRAiNowHp/em39603a0nV80QIgSooxCqAFqwIYGCFEbxvPLk5T1YFRIDWxeA4QoIcoohBqgBmxogBC1YTw+vTf/9KbtaDu/aIAQLTdEjb9rN/mtul+ExXoQkpWigbJBdG1+BL2phUgqLedSboPS0oMQoiV1I6PngmivqYKUSpWSa9dKabispzi+LwtE16f70byrC2cur2L9ljiV31Ih5qzMJKJdljHcKsjKSAuDaFQzly5YLy+4pf4sd4+G9yvpAeymNsoA0as401aH3os+Xj/UKOiVMPr216JKXeJOrkaLmnDO+L2+nQ+iea6hLvnWeXoMwd0y5N09mFgMa9vS9nYMG/Iuadk8H6qGrJZjeyO6h2bT6UDUe+fNKBrBwLcHEV4YQ3dyqb7Esn2ZQM24h1SF2ubOjDI4Kly1zGaZAHR78lMYqDjqdw/41X2IXhtBR6AfU5UQgcYjCNbUoudcMotmPJGps/aYyRJtVhAtcA0VovI+NclcHBMHZUg7ehBeUzD7/Xrs1O+zNIyW7S0YvBRLNKyVCQRrZHSOJv/XgJQvo2gyKl4MockSXBH07diJnjeT19yIY3luFsuGBHuJxhTD8H4J0v5h84dJsY2EECUki9VKmY9zH6LT/Qh0nMHUz3vR1qBm/dyNthfO46oFVDs6OpD955Unm5Z2IzvJ3IUeSHIwN1WwBUQLXUNbfDg5JqhtP51IpWzcr2XuTO7XbRc93QSpdRjLqsA0IOXJKKqLUJsEy4w+9espigpRGZ2vJR8Y+jlufRKihKhb2rJ5XdchujrWhcCuR9H/9tXEeOitqxg5UIfml+dNRXHr1i10d3en/tT/0w1XxHHDdJk0kGV0f/VV7k1AZAHRQtcwwtJq22r1/NQK++q9s2FvVp68EFUQnx5A03YJ8v0tCJ6NILaRtoWjPosvY+xwLeSOMXvRrM3G4midWBbPtOtCfncdousXexHoGMFVo2je7UegawSrxn2GbRWcTzzxBLwEUNXQGtSKbehm0CriGlbgNO5XIZrq2hvsmhKD2b3N9hWAaOJ6MUTPDaBzTxWkmm5MrDgLUq1ekoT61kFEsvNRmdWN+3wDp5ReBfep6xBV5k9i71dPYt7YfS8AUdV4XgOo5vDJIOQdfblddzMRmEFLPa7ANYywzLudbwzS7N5m+4qCqA7NxNhn05AL3fuNGCLfb4K0Rx0L1u/HT69Axu/ldB+iyirGD+xG16vzWFNBujaPMwfq0PaTqz58YqoTSVVoPBZOdW3jK7MYm4zm1FXL9rlvELM5EzH5r5EXnPr7k2thbYKr82w0NSMfXwxjYtowsZT9jqoZROMT6JZ2oudC8rWiuOH1olgEE5NRxPTyq28U7JHRc95wjJPAU8tnOclFoPodVCLXrwwQVaDcnMeZZ9qwW8342dCMQ6dnEkB1spGJcq21WYQONqJaToyHVtU0ofO1NEStxitT2T7VeuS5RlEQVa9hfE1KklG9ux19kyVCVFEQHe1G43a9LgPpKDtmeJVLUsdFG9F5KpKCdlr0nJ1P24Kw96MtygNRUQDHcuRExJ4R9XQfdkrtCC0TRJ7xWYW0N0K0Qhzt/YYXx+xQNxrvl/mzT2pWqGCAEKUghRKk92HPSLnSfEiIEqKEKDVADdjQACFqw3iV9sRlfRllUgO5GiBECVFGIdQANWBDA4SoDePxqZz7VKZNaJNK0wAh6hBE19bW+DR3yJaV1ghZX28/eAhRhxo+IerthkCQ0X+b1QAhSogygnZIA5tthDzP2wAnRB1qQIxEvd0QCDL6b7MaIEQrFKLG3/Bn/G7fIXtsVpA8jzDzmgZch+jqaBcC6sIj2X951hP1mhHV8noyEt2IYnCfBD9ANHq2E7VSE0JLLkMoFsFgh7rATBnuxQeaJ4aaXIeoGRDnB/di76D5yvZmx3thnychqiwj1OwFiEYQbA0lUptkg2UjiuFv16N6fzuaXIdoHBOHZex8eiK11KEXtMkyuvtgLT9E16fQu6sNZ9yOGLIbm8v/iwbRjEyc2dk+U7bIB1HDgh+ShKo93QjN6WuFqud1IjQaRL0so/7wBKKT6raEqv3DhoWTYwgfbUettpSejOqWPoQNK9+ry/o1nQojfLQluXRgFRoPjqXPXxpG8OgYopMDqDemXTGuhbo0jO4jE4gpYQRdh2jCXq4sPJ3yibsNnkB13r5lh+ja+CEEDo9jzWeiEQqihbJ9pmxvDdHl11pQ1TqI2VhCdLHzQdTKnRjTIKieJ6PpVBTK2gS6ZQk7nw4jrsxioGEn+qbVc+KIfLcWtYfHsKzlXoojeroFck165X9tbVRpp7bealwtU0xdTFpCDqTUZH9GcKbKb2wQBSC6Mox2SUL72eSaqqbXMF7PbJsQJYRzdVFmiCZz0P+zdQ767Eyf6v9ecJxIEC2Y7TMFECuIRjHYIKHnglEwUYT2SWjRsnsaz0tsJ4417NdWxW9CaNF4jTB6JBnBqcQ+DaINmSk/tLLrK/Tr5TRbdV//LvVZAKKp44zlKXU7Ub8cyDty7VLLwuNF4UJ5IXrZJN9SlgDV3EpezPYpEkSNM++SVTdYs7sBehl+UIGkZyrN/EwAxHiexbaWnynzXL0s+kSWBtGs1M7aPkEhGpseRItcm4y0CTFRILbV5SgjRNcx9ffF5VbyYrZP0SCaN9tnCphGABqhoEJU75Yb9+vbxvMstjWIdmIsORxgJnQzYJrtU5P32e7Op+qs16GUz+RDpboRPaPpVC9mdeK+Uuzqj2PLB9HYOA4FDmE8T6MyCtBr2T5FgqgGonzZPlNAMQLQKOjEfuvxQ+N5VtthBOV8IE6mmM6KOsWEaMI28aUxdO9wMRlfyi9GX3DbyAURt8sG0as/aUPd309h3adCEQmiSqFsn7oP4rPae6I95/RZ93SDjU8GUVvTieGF5HcbcUQnJxDRHoJW4DTuVxAdakHVQ4YZ+XgMs+fCqdl3M2Ca7VMWBlGvzrzr46vGrKN6XTg774m5AxEhaLdM5YGo9lrTXpy8nG6kdgsu2vlCQVQFS75sn1bjlVkz4LELfWivqYI2lilXo35/H8IlQFSdoU/lRVLHWLfXoqkj/QqUGTDN9mkz/cf116BkVHeMmbwzWmBiibPzhGzqgessh8oDUZcKLxJIhYNoBdi8/P6PYaxDQv3RMGK0L6Gc1AAh6lBjIESdfbqXH5BFlj8V4fNnn8L6yKE2XWz9CFGHDE6IFgkhh+xdrMB5HP3itgYIUYcaNSHKxup2Y+X1xdQYIeoQRClwMQVOv9AvbmuAECVEOUFADVADNjRAiNownttPOF6fURQ1IL4GCFGHICrCmKgIZWCjF7/R00fO+ogQJUTZlXNIA4STs3Dyij0JUYcakAhRoAhl8IrwWc7KBJ4bfidECVFGog5pwI0GymuKD3tC1KEGJEIUKEIZ7DZ6bS3UrJWd7F6T54sPIi/7qDwQXRpH72MPoE7N+NnQht7RRd+t5iQCwEQog7ExmC4OXQCQbkB0efzr+NwTz2NSUTB56vP43HM/zl3A5D9iiPx4L/4keZyxHup2+ryPMPTc5/G5U+8wgncoAMm2tdf+dx+it+Zx8qt70Xt+NSG62EX0f7UOvXlShHjNiGp5RQCYCGUw893EYQnS4YmioOMGRGNvd+Fzf/ciIjoMf3AeWk4nHQL/Oo3vPfdf0PD3f4UGC4hGfvzn+Fz/PyGmJCDa8NPFoupjZg/u81dk7D5EV8fRFejCyPW04ab+IYCu0SRUdSF7/FMEgIlQBjNA5AOjutxey/0yJEnN9DmMseP1kApEq2b3yLvvV8+nok8tKs2KIuOXXsTBkTnEP/oxHrGAqPE8NSp9ZPwjQtTjbTavZkqom/sQVVYxfmA3ul5NduGXRtDV0IVxA1SdqsxWXkcEgIlQBjMfWEJ0YRCNUhMGLiUycMYuDaBJXXc0B6IxDO+XIBW1Wn/6YZ0qSxZE/+SVaXMAlgDRR98kRFP2LQE4fjynDBBVoNycwUuPBlD34APY/cAhnHnfOtunV40sAsBEKIOZ/6wgqmX2PDhh6FrHMXHQDKImYHSj4eaBqFm9uK9MfnHD1w5eswwQXcf8y23Y/dhLmLo8hVcONWP34TNYvOkvB4gAMBHKYAYWK4iq++tPZCZ+szrW7LqO7yNEzSN0B4HjuM8EKJv7EJ1X0yT3YyoFzXVM/cNe7B2c95XDRACYCGUwayRWYCRE/RVImPm+Eva5DtHVsS4EukawanxivNufu8/4vQe3RQCYCGUwazRWEGV3nhA104vX9rkOUWXpDNp2dWHkg+Q46PoiRg4Ul3/eS8YUAWAilMHMZ5avOJlMLLXIssnEUplg40B3Xku0J3VirMjU4Gb24r4y+duhYM19iCoKVt89iUPNuxHQXrZvxqHBKaze8pahCglbBICJUAajnbQIVJ1tN/5lzbzH3gyicbt6jPqK0xgiZztNIGpzdr7YxuIARLU6Z2VNNdqE2/5q96o/ywLRShCOCAAToQyV4GvrOkYR2ieh/WzilS3r4/wHkkquKyFabJRS4DgRACZCGSq5MSnxCXTLPZiIE5KVpANCtAAcixWDCAAToQzF2ovHEbR+0QAhSoj66lUzvzRM1sM7DxlC1CGIUvTeET19RV85qQFClBBlJEoNUAM2NECI2jCek08zXovRETXgTQ0Qog5BVIRJHRHKQBB4EwT02+b9RogSouzKOaQBgmjzIPKy7QhRhxqQCFGgCGXwcmNg2SsTgnb9TogSooxEHdKA3cbI870JcULUoQYkQhQoQhlKA8EyQs36b+ubEFryZiMqrc56HcMIShKCk/r//NycHbfebmWB6Pr7I+htSyxAUvdgF06+66/8SqrzRQCYCGUwNgTTBUgkE1jGJ9Bjtt+hB5yxTG5tm9Y1a7GVzHu7A9GispLmzWz6Dp57IplDSluQ5fN47ldbD6pM24lVHvchGjuPp3Y1o/+f1xLdRjXH0q5mnJwXyxB2nSQCwEQog9GOGljygkTXgAoUE7gKBtHl11oKRo6Wy/7l1MUdiBbMSlows+k0jv3d5/H42zEoGkQfwMlF3U/8NOpb33YdousXexHoGMFVg4hWR7tQd3zGV2NxIgBMhDLowlI/nYFoDOGj7ajVlsuTUd3Sh/BKsjFPBrHz6DCG91dB2t6EwUvRxLZcj+BkPK2vlTD69teiSl2ST65Gy9EwYik9qjDrwdilELr3VGnL9sn3t2BgOn1+5PvdGJyMYkzN/2RY1s+sK25dZ7UeLaiWJUjbG9F9dgwDDc535wtlJS2c2TSREjoRfapR6dcx9BHhadR19rbrEF37+VM5q9hrYM1e7T4lam86TASAiVAGo8CsgZLtY6tINI7Id2tRe3gMyxvqOXFET7dArunTcsgrk0FI23swsaYgeqIRkhrNLiqIn+uE1DGWAGU8gmBNLXrOLSegGo8i1Cqj9lgkCdlERCjtScNZu4ccRDhDk4ll7szAWUydo6caITUPYFZbrDmG2e83aUDOud7KMNqlzS+nlw1Ry6yklmunZkP0r3D2t9n+4v9Gn7sOUeX6iJZ3/pX5ZHc+NoWXHq3LAauxUF7cFgFgIpTB6DsNoobITYviTBcstoCourRcEozp64bRI8kITinQIKpfTwXqvhCiKvjU7eT++Jvd6f06FC/0QJKDCRArCYh2v5mOPLUl7XKGFxKTYDnQ06+Z/DR/cEQx2CAh9x7OR6JpOxUAnSVEC5yXVd+i7+fj89yHaHJl+64H6xAI1OGBA69gPNSFwIHxzLxLHjeyCAAToQzGRmUOFLNGagHRpVAiD302iPVZbQMsjeA0bifSdWR2wxNdcj3STN47Y9zPrDx2IKperx6DC8a6q/sIUaNevLpdFohmG2f+5b2o+wHHRLPtYvd/f0I0T76iYiGqd+1NH9RmwDTbR4ja1adfzy8/RG/N4+RX9+LkZeNT2fvbIgBMhDIYG4rtSFTtass70TdtoY8iIKpGpfKO5BjqlkGU3XmjLvy2XR6I6knpYvMYOdKMOp915VVRiAAwEcpgbCBFQ3RtTHtPdHDOMC6ZBF50qAVVD6UnfZR4DLPnwjljn8YufMa2ok4kVaHxWBgxbXJKQXxlFmOTUcPEUvbrVWaRaBwTByXsfDqMuFa2OOLJ6xnrbPWKU+7EUgtk2cvd+eQPJfJG+RYPP9OHmXePLQtEZ44HtEyfdQ+24anT/sv0SYiaNwANojnjmQZgqZFkzvdSVrbPOGaHutF4v5w4dnstmjqGS4CoAmVtFqGDjYnXiyQJVTVN6HytVIgqUBbHUq9BSdtrMaBObiWBYFrXjHdkY5g40ph4zUp9xWk0guEOE4janJ3Xy1Pw0/bEUmJMt2ko+daDz8BY0H6G+pYFoqUUyKvHihAFilAGr/qP5U4/EIqyxaI66deOYf2dXQNUijrfR8cTog45UwSAiVCGSmtAlVpf9dUx+fBEcmijRAA71OZEsT0h6pBDRQCYCGUQRdgsR2WDrZz+J0QJ0dS4XjmFx3sRcn7RACHqEET9IgjWg3CjBkrTACFKiDISpQaoARsaIERtGI9P7NKe2LQX7eVHDRCiDkFUhEkdEcrgx0bCOhH++TRAiBKi7Mo5pIF8DY3f+RfEhKhDDUiEKFCEMhAW/oUFfWvuW0KUEGUk6pAGCBlzyPjdLoSoQw1IhChQhDL4vcGwfpUJynx+dw6iS+N4tjmArlGTTJ6rUzh54AHUBQJgtk/3RCgSRK0XQ5Yg5qIVHyNybB6yFM1KC6L662PMDr2HxvsvQ5Iuo2rPAganbxoi+I8xe/Y9tNckvpfky2g8uISoySpP+Rojv3OvbbhpW0cgenX8WTz64CEc6jKD6CpGuurQ9dNFrKtL4mnZPttwxmc5xkUAmAhlMBNr0UviOdQrMCtD3n2x6xhovoz6/VdQbwbRxQ/R/e0PEVnZgKJsIPbme9gpv4eJuN7of4ex4+r36wmwxla069UeXzGAVj+Wn3l9sVUasHFfByC6ivEX+nFxVYG65F1OJPrBGTwa6MeUvqaoomB+cC/2vjzvK4GJADARymDWQPJBNDY1iE5Dls2+C7G0LtT0IHIQE9MDaNGWwlOzfQ4gsuYsiOJTi+g+tYr40odoMoNoTgP7CEHpciLPU853ibJFT89DOvJRui4Wx5nZi/uc9a/b9nQAoukKm0HULLPn6hhzLLnhWM9BdGEQjXILBi8lwbk8hp6a2nS6Yy3Hkoyqx4eT2T5jCB+phWyyEHDkqJo2Od8K9mmdWtq+WIjGfoNOaR4h097ULcQXlp9roYwAABlFSURBVNBZM4vgVDIyJUB9/TBxHaJqjvlAdnrk6f7cfR4XmggAE6EMZoCyikTDR2TsPKqnLk5AThtL1SGpQTQrPYi2rwXDy0VAsVRNFQXRW4iemIfc8RtD7vpEWcJHkmOi0hUEL/zO1+Aw83Ol7iNES21oFseLADARymDWkMwhmkgvkTPJpK12n8zEqQHTsBK+ZvvEiuqFUheblaPgviIgGp+MolZewJjlYsS3EF9ZwWDrZdR+9yOut2nRXgr6wkPnuQ5Ry+58dnTqIaOZCUAEgIlQBjPb+Aaiix+iZfsVDM4ZZ+YtIuLpRewsanzV4nyPtwczHfh1n+sQVTixVLZunbcgqsCyO986jGUVIiJ151WAyrMIThYBULXsk1GL16UITb/B1H2IKqsYP7A79xWnD/wlJhEAJkIZzBqIeSSqJn4LoWV7oYklCXJrCFHtdSLriSWz+5a8z6o7v/YRgupE0YWPzR+IC8sITf4unf0zX3deG67IGudl1GluV4/YpQwQVaDcnMcrfNnedaF4DqKKgvhcKJVBU76/BTmvOEktGBwt/IqTm7Pzy0Pz2kv26ov22X/a2OzSb9DdPIuq5Pfy/fPoPL6cM/GkQl2bOJOTY74egUTJD6MKq5ejEK1kY4sAMBHK4KgGTCeWvN2DCT8t5byR4KjNKgxgItiOEHVIdCIATIQyOCpq30E0isGGRgwuePtB4KiPHWp/W1kmQtQhJ4oAMBHK4KiYfQdRwtNRfTjUdu2WiRB1yBEiAEyEMtgVJM8naL2mAULUIYh6zfEsL2FFDTijAUKUEHX9rQE2VmcaK+0oph0JUUKUEKUGqAEbGiBEbRjPGBmIMB4pQhmMNuG2mJET/eKsXwhRQpRRiEMaIJychZNX7EmIOtSARIgCRSiDV4TPclYm8NzwOyFKiDISdUgDbjRQXlN82BOiDjUgEaJAEcrgVqOPzw2is6YKkiRBkqvhynqiDmnBLRvwumIC1TmI5sv2qYpzbQYnH6tD4PiMLyMfEQAmQhmMDV1bbONI2AF/L2O4VULTqagD19pEQ1xexkDHPKrlZLbPmisYmMpa0Wl5GX37k4uQyJfRcuQaojlQ3kD07AJqLVOLbKJsOffgNYwaLMe2IxDNn+1TwdrMK+h48FEcOvAoIeqi6P0L0Qj6dkh5ok8Vsu6tjBSf/AAD5/Wl7jawPLqAnerq9jEdWDcR/u4VBNVjVP/Gb2Cw+TIaT91IQ3/jBoa/PYvq/VfQRIim7eJieygHQNV7OADRAtk+lXXMvNyLM++vQ8u3xEjUNQF5EaLaUngPVUNWu+nbG9E9NGtIqZFIBaJ14dXvU386MCMY+PYgwgtj6E59px6nf69DzunPZfQUAKG2fF7rUmJxaRUUS0voPnINMUXNFGqV5M7pcvJ65QCpAxBNO8os26exEoRo2lZGuzi17TmILg1nLsq8MoFgjYzOUUPaZC1SKZBXaTGEpkLgXBlGuySh/Wz2tUv0ycYawsfmUWUEpEk0FTk2C9k0ZTIh6pTeRbkOIWrSADbjHBEAJkIZjLYrNCYaPVEP6enMMdPo6SZIenqQlG8KQFRb7cnl6FNb9T4xJlr77Q8RWbll3aNYu4ZueRZ902bHEKJGjfhhmxBNNdQSI5Ks80QAmAhlMDaKQhDV0oZkdMOTXfbmULobrNlZAIjq/t6II3ruPdTKVzBsmnf+dwipmT6PrVhAlhA1asQP24So3jhsfooAMBHKYGwUxUB057HMvPPG89PbAkFU08nHGOu4jKah32eB8ibCR2ZRe1gd+7R6KBOiab9a2chb+wlRS7GX5kgRACZCGYwNpBBEte/3D+cBju4D0SD6e4SasyGaAKjc+qHJq016PdRPQtSoET9sE6KEaFY0ZWzw9rYLQVRZCyNYU4vOs9HUjHx8MYyJ6ezJnwIQjU+gW9qJngvxRF3iyU9HfPsxwqPXMLuynrTTOpZzuvO3EB26gioVoBuFbEaI+gGcxjoQoo40NAUiRIEilMEoLg2iOWOeTQgZxxJXwujbX4sq7TgZ1bvb0TdZIkQVBdHRbjRuT4ypVtUMIJLt103Pzq8j8v0rqL8/nemzdv97GJ4z5p9XwZj+PiMjaPOHWeO7hKhRI37YdhSifjDIZusgAsBEKMNm7cfzCkWw/F5UjRCi2RHLJv8XAWAilEFUobNchLBbGiBENwnNbIeIADARypBtF/5PePldA4QoIeraxJLfGw/rxweEqgFC1CGIskGxQVEDlakBQpQQZSRKDVADNjRAiNowHiOPyow86Hf63agBQtQhiHJShw3L2LC4XTl6IEQJUXblHNIAwVk54DT6mhB1qAExEq3MBmRsTNyuTA0QooQoI1GHNECIEqJsTDYaEyPRymxABCf97lwkmifb5+o/n8Sh5t0IBAKoe7AL/W9f9R2whYKottJ7FWr39yG8QpETdNSAmxpwBKJ5s33enMFLT72EqWuJpcTWPziDrkAbzhhX8rERAbppnFKuLRRENXvGMfv9RpNUG2xQpfiVx1IvhTTgAEQLZfvMdsIqRroC6Bpb9VU0Kh5EFSiTQUg5qTay/cH/CzUSfk+N5NOAAxBNG7hQts9EQeZx8qt16J9On5evgF75jhD1lz+9ojuWc+t1V3aIrl/sRV3zSczf2vrKOylAYSG6L1QgXYW//OCkT3ktaqMYDZQXotdG0LWrGSfn/eccISGqTTDVIng+lkq/UYwoeIz/9EmfuufT8kH05gz6m5vRe9FfY6G6OIWEqKIgNjmIlt1q2oystBw+mMzTbc9P9wBB2xa2bXkgqgG0Dl2j/nu1SReZkBC9NIBaqQkDOYnfCgtDrxc/aStqIL8G3IforasYObAbXT/1L0BVkQkJUc7O++oNEMIsP8y2yj7uQ3S6X3vJXn3RPvuva9Q/XXtCVEyBb1XD4n0rRw+OQrSShSMiRKOnmviyPcd+GY27rAFC1CEDCwVR/Wefzd0IzcXZiBzycSUHCay7dWRNiDrUwISCqEN1YsOxbji0DW2ja4AQdQg4hCgbld6o+FlZWiBEHYIoG05lNRz6m/7WNUCIEqIcM6UGqAEbGiBEbRhPfxLxk1EJNVC5GiBECVFGIdQANWBDA4SoDeMx+qjc6IO+p+91DRCihCijEGqAGrChAULUhvH0JxE/GZVQA5WrAUKUEGUUQg1QAzY04BxErbJ9rs1j/PghNDckFiCpe7ANveN+XdEpjKAko/oh/tySkVnlRmaV5ntHIJo32+e183hldB6r6wlRrc2/gq5AM155378ii412Q5aDiNh4ulWaEFlf/7YHv/vWAYiWmu3zKkY6Ar5LVJchFG0BkCDChCi7idSA7zXgAETTT9CC2T5vrWNx/Fk0N7+EmWRkmgEfvwiOEPV9w/Glbv3S/spcjzJBdAb9+qLMB17C1FIavL4UowbRHkaiZRazL7VEGwr/QC4TRJPQvLWO1ctntIyfL82sC2+cTTfKeBjBHTJaTs8ivuHzBwYbuX91TN8W5dvyQjTplPmX9yJwfKaoAm4aZFssgPjCMHoeqoYkSQhOEqRe9SPLTe0W0sCWQHTmeJ2/IRobQ6e8E92jy8z3vsUPs0INgN8TknY14DpEr14cwcxSuuu+VgndeU4s+bqXYbfR8Xx/gdt1iK6e70VH8+5kps86PPDYU3jlXf9k+TRtEIQoIcoIvGI04ChETYFSgWKKne/BTr5sXzGNiLr3V2RZqj8JUUchn/zZ5+529F2IESKO2rayG2qpDZvHl08vhCgbOmFPDVADNjRAiNowHp/25Xva09a0tagaIEQJUUYh1AA1YEMDvoDo4uIipqam8M4772T8qfvU70R9grFcjK6oAe9rwPMQVSH5/vvvY2NjIweW6j71O4LU+0IlbOhDUTXgeYiq0aYZQHWDq9+px+j/85ONkRqgBpzUgOchqnbhCxmkmGMKXYPfs+FRA9SAmQYIURsDymYG5T42NGqgsjRAiBKiBSN5QqGyoEB/l+ZvQpQQJUSpAWrAhgacg6hVtk9j4W5dxciBOgS6RrBq3G9jWx/vXB5qgrS9Fu1Hw4hlXU8/hk/Y0p6wtBftRQ0U1oAjEM2b7dMAtNWxLnS0tbkCUc3Z8VkM7JHQ8tpyxpOVEC0sBDYW2oga2JwGHIBokdk+r4+jq6EXF9/udw+iioLwEQlNQ4QoG8TmGgTtRruVqgEHIJo2unW2zzWcf2o3nvr5GtRo1I3uvF5xQjTtD90m/KRNqAH3NFAWiK5f7MXup85jTVGwOloGiJ6OsjtvGEZhA3KvAdG2tK37EL15Eb0NXRi/njC22xDVJphqgphYiadAyjFRCp2wowbc0oDLEF3H1D80o2v0agpobkNUUWIIn2hBvSRBag5hWVG0RUncMiCvy8ZJDVS2BlyG6Az6A4FkfqXszy6MJKNTOyLMjjJnj9dCah5AZCXt2Oxj7NyP56btSlvQFtSAApchmisytyNRTizl2pxCp02oAfc0QIhyAiY11MKG5l5Do239a1tHIboVQsnoqm9EMdjMl+23wg+8p38hQd/m961vIKr/7LPpYAiza5mVzgAtI09GntQANeCgBnwD0XxPS0I086GSz1b8jraiBkrTACHq4BOJ4itNfLQX7eUHDXgeokwPwoboh4bIOnhXx56HKBPVeVd8BAd95wcNeB6iqhNUkKoRqTr2afxT9zHTJxuqHxoq6yCujn0BUQpMXIHRN/SN3zVAiHJiia+7UAPUgA0NEKI2jOf3JyzrxyiSGiisAUKUEGUUQg1QAzY0QIjaMB6f0oWf0rQRbeR3DTgHUctsn6sYP5C9DF4/ZggvPv2pAWrABxpwBKL5s32uYqQrgP5pPpH9/kRm/ajxStSAAxAtlO1zBi/tcmYB5kp0EOtMMFEDYmvAAYimK2ie7VNd3b4L46vp4ygK2oIaoAb8ogH3Ibp2Ec/uSo+J1j3Yht7RRaz7YCzELyJgPQg0amDzGnAfoiosb66nBtDXLp9B1646LQc9Hbd5x9F2tB01IIYGygPRrKhz/uW9CByfSYGVYhBDDPQD/UANlK6BLYNo3Q8IUQq2dMHSZrSZaBpwH6LX5zGzlN2db8ZLM+l9ohmF5WFDpQaogWI14D5El8bx1GMPoE7LP1+HBx57Cq+8u8qufNYQR7EO43Fs3NSAWBpwFKJ0rljOpT/oD2rAfQ0QoowI2SugBqgBGxogRG0Yj09595/ytDFtLLoGCFFClFEINUAN2NAAIWrDeKI/IVk+RnHUgPsaIEQJUUYh1AA1YEMDhKgN4/Ep7/5TnjamjUXXACFKiDIKoQaoARsaIERtGE/0JyTLxyiOGnBfA4QoIcoohBqgBmxogBC1YTw+5d1/ytPGtLHoGiBEyw3RpTtokgBJ/Wu+g2VX7n8drx96Erv2qn99eP06G6LoDZHl865GnYOoZbbPhHHW5kfQm1qIpNJzLv0B8TfvuQjRpCD//Zd4sRwQjYUR3F2P4GTcolsYw1hHFaqORiy+d7kBrc1isLUenaPRrbm/Kw9Kl23GMhetFUcgmj/bp4L16X407+rCmcurWL9F52tRx+Rd9yGqXML33IZoPIJgzU70XLACqCD+XgsjWFObB/SClJPwKhpeokTvDkC0ULbPqzjTVofei+6vHxqfu4PgfqAq2V2u3n0XE2uGxrF4B8EWQFa/3w50D32GeEq0txGU7mHs0h1070l0t+X772Fg+o8Gp/4BsQt30V6T7I7LQP3+u4gUfQ9DWfJBdOU2+vR6yEDL0duIpcppuEbBfXkguhTG9w73oEHt8n/9Wbz4+v/NzHt16wb+5WQfvvaIPiyQ/Dw0gRuG+0aO1UI+OGGwo6F8k0FIkpT+OxI22DJxXOxCH9prqhLHyNWo3z+Qac+NKMaOtKBaVq9ThcaDIcym7L2MUHMTBifD6Guphqzea3sjui0izvhkEDt3BBGOG8poqIsojZLl8JZ/HIBousKm2T6vjaAj0I8ptyPQpTtokYGec58mG/QfEVvUtxUoa3fQnfxeE2nsMwy2Ai1DnyYbtgpRQNpzF+GVT6AonyB6+h5k+S7CekOL3UGndA+DC0mwxv+I6PRnacAVvEfaVooVROO3EaxJ1EMrZ/wzhFqB2mOf5QCocGOzgOi//RIvPvIMXnz7RuKa//oezh7uwZOvX0/d48brfdh1aBzXVL/dWsO/HH8GX/vedGZPIj6BHnkn+qYN9dJtlfW5PNQEKRuisTF0Sk0YXEhGsfEYotOzaXsqcUwclFF7eAzLG+o9Ypg90YKq1hCi2vVViEqQdnRiOHmN2IUgaqUmhJbMyhTF4B4J7WdjqXqmbRhH+EgVpOaQS+PUZuXhvrT9vWsL9yE63Y9AxxlM/bwXbQ1q1s/daHvhPK46DNXIMUA6eMc8IlIULA/dg7T/jqGBKlBBJu+4i4jWIBMQ7X7TEHnG76BbupdukBpEgb4pHbyZji98D8PxFhDVxkr33UlCInn8hXuQZL2chmtkgSpXkOYQ1QD5zNtYM54/fRoNrT/BleS+X//gSfztSBqqyvRp7MqKQpWpIOQdfUn75S+XNUQb0TdlBjUFylIITVI7hleM1w4jmAJ3AqL1J4xjnVEMNkgIThrPSW9HT9RD6hjL1IHRDtw2ecCk7ZerMX7nOkRXx7oQ2PUo+t++mohibl3FyIE6NL8876CzPsVwK9CUiipzHRs+AkhHbmfeU5sp1yGZ6M6HFo3nJvelopo/IDp6D/UyULXnHgbOGyJdRUHhexiubQFRDcTJ4QhtBj+1bYiIi27o5hBVAbnrB5cybXF9Ak8axk+vnX0hJxJtyDpHA2ORkZspRBUF0dFu1MsSqvZ0YuD8cuZDUBsOCKZ7Alq9E+BsGlqGoiS2ey4Y7JrcZwVR5UIPpH16JGs8j9sE5OY04DpE1y/2ItAxgqvGhv9uPwJdI1g17rO1/SlCzQ5BNAVM1aDZEE0aeeNThIfuouV+QH7oLmaTZXcMoh1ZEfOmbbN5iCq3ruMXzz+TfE2qBx19E/jg3zJF5gREtYa7sYzwUBAt98uQHxpM2VMpEqKZwEyANXOfodzqNYuMngkVg902rUH/X8N1iCrzJ7H3qycxb+y+Ow5RBWp3Xj58OzOSMTjesqud6iabAdNsn1EUt9G3A6muY+F7GM61iEQzhxgMxxvqUnzjNoeoZXf+kSH8Wr9PfBovtp/Gv2SB03jv+JvdkBoGM4ce9POzPq0iUeP1FCWCvh2Grrhld15GcEq1jRkwzfal7aiVo3WY455Z/sn0Q9pe3F/YFu5DVFnF+IHd6Hp1HmsqSNfmceZAHdp+cjWzO2nXqYvZE0ufIL74GZb1mdi1rAkb04klvWuvGy4Logu3MTb3KeLaJMcfEF+6g04ZGFxIHl/wHvp1P0H83D1I++5iNv6HLDt8qk0kNR67jZh+n5XPMDaZPbEURWifDHn3QDpyy7ZhXH1P9AWcjW5k3uPfLuF77fknlrQx0G/9DFeMD7/s668Mo91yEkeva+LTFKILYYzNLSftqSC+NIxOuTFtT0Wd7KktOLGUGXXmg6j6vqqEzDHUdDmjo33oe23W8kFMoKRtRVukbVEGiCpQbs7jzDNt2K1m/GxoxqHTMwmgZjdKm/+rrzh1P5R8hUkCqh+6i4lYurKK+upQgVecMmd1syF6B52G61fV3EPwzaxJprz3SI6bpsY5k69KSeloVhPn2mcIHbyHajnxvXqfztdKgKg6CaT9Winr9STjmObKNE7ne8UpPo3vfSPz/K89fgq/uGawpz57fqzwS/TmEB1G50PJV5MkCVU17Qi+aZwkUu8VQ/hovlecDJGrpp88ENUiW+uZ+9A+CYmxVmMduU1g5teAoxClsfMb2zP2USeZ2k9j8nfGCHYDV04/i4YTc5lR7dIwWuQmZE7I5drBFKI2H5ql2TOKUGsVWoayIZ0sa3wC3TlvAuTWo7R78vxKsBchWtaG7JFGNf8TfL01E6Lrv1PfJX0SHWdzh2Hi031o3N2DiYxXkQx1jc1ioFlC4ykLgLnug+SwwJGwdVd9bhAt383zvetlNNiL98p8UAtuD0JUcAdtzZM8jg9eP4WO1nR3/muP9eHF19+zHoZZiyGW+iWR/o5n8tdK22vRfjS8de9mbsQRiwn+s1Tq0FPgNLZLQpTi9ax4jULmNiPZrdIAIUqIEqLUADVgQwOEqA3jbdWTj/dl1EUNiKMBQpQQZRRCDVADNjRAiNowHqMBcaIB+oK+2CoNEKKEKKMQaoAasKEBQtSG8bbqycf7MuqiBsTRACFKiDIKoQaoARsaIERtGI/RgDjRAH1BX2yVBghRQpRRCDVADdjQACFqw3hb9eTjfRl1UQPiaIAQJUQZhVAD1IANDRCiNozHaECcaIC+oC+2SgOEKCHKKIQaoAZsaIAQtWG8rXry8b6MuqgBcTRAiBKijEKoAWrAhgYIURvGYzQgTjRAX9AXW6UBQpQQZRRCDVADNjRAiNow3lY9+XhfRl3UgDgaIEQJUUYh1AA1YEMDhKgN4zEaECcaoC/oi63SACFKiDIKoQaoARsaIERtGG+rnny8L6MuakAcDRCihCijEGqAGrChAULUhvEYDYgTDdAX9MVWaYAQJUQZhVAD1IANDRCiNoy3VU8+3pdRFzUgjgb+P0sfJPQEYk+WAAAAAElFTkSuQmCC;" vertex="1" parent="1">
          <mxGeometry x="31.26999999999999" y="496" width="151.7" height="140" as="geometry" />
        </mxCell>
        <mxCell id="WUKZvmKu0vjh5GC4oTGp-13" value="Ejemplo" style="text;html=1;align=center;verticalAlign=middle;whiteSpace=wrap;rounded=0;" vertex="1" parent="1">
          <mxGeometry x="47.12000000000001" y="456" width="120" height="30" as="geometry" />
        </mxCell>
        <mxCell id="WUKZvmKu0vjh5GC4oTGp-14" value="Cliente" style="rounded=0;whiteSpace=wrap;html=1;" vertex="1" parent="1">
          <mxGeometry x="230" y="426" width="120" height="60" as="geometry" />
        </mxCell>
        <mxCell id="WUKZvmKu0vjh5GC4oTGp-15" value="" style="endArrow=classic;html=1;rounded=0;exitX=0.5;exitY=1;exitDx=0;exitDy=0;entryX=0.497;entryY=-0.074;entryDx=0;entryDy=0;entryPerimeter=0;" edge="1" parent="1" source="WUKZvmKu0vjh5GC4oTGp-14" target="WUKZvmKu0vjh5GC4oTGp-16">
          <mxGeometry width="50" height="50" relative="1" as="geometry">
            <mxPoint x="170" y="596" as="sourcePoint" />
            <mxPoint x="290" y="546" as="targetPoint" />
          </mxGeometry>
        </mxCell>
        <mxCell id="WUKZvmKu0vjh5GC4oTGp-16" value="server" style="rounded=0;whiteSpace=wrap;html=1;" vertex="1" parent="1">
          <mxGeometry x="230" y="576" width="120" height="60" as="geometry" />
        </mxCell>
        <mxCell id="WUKZvmKu0vjh5GC4oTGp-18" value="{&#xa;Â  lineId: &#39;1&#39;,&#xa;Â  elements: { element1: { Id: &#39;1&#39;, ElementId: &#39;1&#39;, Top: 123, Left: 321 } }&#xa;}" style="text;whiteSpace=wrap;" vertex="1" parent="1">
          <mxGeometry x="300" y="486" width="200" height="90" as="geometry" />
        </mxCell>
        <mxCell id="WUKZvmKu0vjh5GC4oTGp-20" value="Cuando el elemento es nuevo, se se asignarÃ¡ un id temporal identificable, probablemente &quot;N&quot;&amp;nbsp;" style="text;html=1;align=center;verticalAlign=middle;whiteSpace=wrap;rounded=0;" vertex="1" parent="1">
          <mxGeometry x="30" y="660" width="150" height="80" as="geometry" />
        </mxCell>
        <mxCell id="WUKZvmKu0vjh5GC4oTGp-21" value="" style="shape=image;verticalLabelPosition=bottom;labelBackgroundColor=default;verticalAlign=top;aspect=fixed;imageAspect=0;image=data:image/png,iVBORw0KGgoAAAANSUhEUgAAAtIAAABmCAYAAADmrnbgAAAgAElEQVR4Ae2d+5dU1ZXH+UvuamAQiDNCNCETI6xksoYx0cXMIMOYh2OIURPQMY4IySSiTiSIWYqOGk1s8lhCRAM40+kMGCVB12rNokO7DNpCqJ/8R/as89jn7PO4j6q61VXV/f2hV92699x99tnnc+t+z65dt5cVRUH4QwzAABgAA2AADIABMAAGwEB3DCxDwLoLGOKFeIEBMAAGwAAYAANgAAwoBiCkkZHHNxJgAAyAATAABsAAGAADPTAAId1D0LAKxSq0CQPrd5+g2Tefo5sCxjbRs2cv0Mk99TFU5891OtS5+CY9d1N9+yY+oQ3iCAbAABgAA2CgPQYaC+mP732Ptk/O279TtGFte060N6Hb6dMHLtD2J16kv/mr4fnnBJASQZ0OXTi5ZwxXeetp94k57b8ag/u7cJL2sDDc9Cyddccu0pvP3TSG47ScBGPx462aOz3PJSLXMJAXzFXnuWth/W46MTfmMWVO8Dq+1wXmDnMHBsAAGKhkYNnRo0dJ/rkbuQjc2jv/QP8yOWTxvOk5+uJP36FNX1hTMaDhC2kjoEIBtOnZ040ykLnY977PCOGLSUa06QKji/PHRPRtevYsdeRCQDDu4tzFWEoFca0Nu0ip8kUJ+xKR7nzN+Y99FZ8PTdlHOzAGBsAAGAADzRhYtnr1alJ/69at04I6FzidjX7oR7RimDfpRkK62aBzY2xlnxZQo5KB7kIIZ+e1i/NrheOQ58WOb6GEdBv9lIr07FyNRnxbuYYwPiwEwAAYAANgYIwYcKUdK1eu7EFI/yd97rl52nzrej/p247TTSJ7rbPZD/2I/lpntW1pSE6U6/O4dGTel2doAS32u/KSedry7W/RhA12UHpSUtphMuveljy/KNRYVMb7QT0mU8ZSlwEPBUwj8cOZxh3qq3tbQpBkHlUdrS8vyGVRTebbt/GZZ5vtdCUXvk1caxvaCLPoRdGWkK4YixbgF2j6iK0FvnCSDqqscadDfjwqxtGYonjpcVw4SQ9xTbEau8j2amGbi0cnU3pRuSiI/FA2I1+KQo03jmXIiRGc1fFtxNIYfdBAZOcYwD5wAQbAABgYdwYqhLQRyb4uOidAGwppJX5ZPFthnIrvGtHaMCOtxXJGSKflKcZ3L6Z5vN4PLc4ztsomXQu2RFhFF4mrxWWxFQsqIzy9kLTiTQjDYv1uenla/IhN22R73F9sl/ebVyOihZBMbNh+IwHq/RL2SsVnzVj0eVb02rgo+zuUIHZxTMcfx9ktCDhG1m5c39xfpjj1Iyt29ThEXCvErj6ffY7aKV+zsY7albGI/YJPxMwnOhALxAIMgAEw0CoDyzZs2EDqb6AZ6UCMmjpmL2Dj9yU3wL6EdL6PUHTXLwrqxEks8LLtE8FaUCDw1HEnIm0sasWZEayhcKwS0uZYdfuq86M5KhPSdWOR58kxyvN0m0iYyvOKglJBm/c9iHPZB0lk281hxo+035wvUaxEv6Xnj+0PVMvH6uIoxo99iBcYAANgAAyMOwPLPvroI1J/wxPSGQGbu9n2JaRL+gjKUDJtguP1sOeEUQKIFIyZcWobURbYPDFDikkjFN2TNGz7amEs/TfCOz4/LKnIi9FkPGoMJeKzdizyPBkXKaT1flGe4mLjM/Bp3PO+9yWkpX923tJ++xfSHF/lKzLSkllsMxt4BQtgAAyAgdFhoKK0wztZ/mPDevEZZn2VzTg7HL/3/Qag9CWk832EvtWPJfAnI4ILLba8wMu2zwiyoJ06Hmeko760IAzatJGRjuOeF6OBr+yXFMS8T73WjUWeJ+Miz9Nt5CIi9jMnXvO+L4SQNgxU+8sx1EK8pLQjJ9L5PLymDCAmiAkYAANgAAwMg4E+hXQkULXYVbXU/lF5oVhVkxydUxSk20z62uR8IIzQ9SUheWDS/kw704f3q7C++lrtFoS0+1FcKKSCx99JwShFp9uO64rjcRqRmPsxXZiRtiUjgeD2trRQy/3YzvmRF6PZuZGC2J2v+qoZizxPxkUKaY5pieBU/qSiM+97/ZjLs+s8Fo6xsVX2Y8MmT27J+8jxTcfk547b4BUxAQNgAAyAATAwXAb6FNIFFcHTNk7Rhs3qec9esKbCNhXSCgIjdP0PGrP/VCXoSz61w4jg9IeR3g/VR/Bkj8noaSP6qR3Rvi5LOxhmnfl0JQiRqJKCMRCdEoRM6YUUklqA+nKHi2/+jJ48MZf5xy+RnUhUOzHofJXZdCvY3THbn/AjHieXirDYNPGIfFD22EYjIa3ikvFFjCUVnWUiNbYjFjx6XnxMs2ORbVT/u/LfHvSV+bZMpGOSfGCbrzW8ggUwAAbAABgYJgPLJiYmSP1dccUVpY+/G6aD6BsXyNgxYBc64YJCzmOZ0Bdtgqy82F+6+EKbseMEc9nqL+cx//gMAANgYBgMNPrPhsNwDH3ighhnBky2X2S8hWhqlG2W2Xpx7jjHBL7jmgYDYAAMgIHFxoAr7VhsA8N4cLEOmwElmGeTf9GuSl3yAjv214jxXB025jaOFd6DCTAABsAAGBgGAxDSyPbh61UwAAbAABgAA2AADICBHhiAkO4haMNY8aBPrLTBABgAA2AADIABMDBaDEBIQ0hjBQoGwAAYAANgAAyAATDQAwMQ0j0EDavB0VoNYj4wH2AADIABMAAGwMAwGICQhpDGChQMgAEwAAbAABgAA2CgBwYaCenly5fT1VdfjQD3EOBhrI7QJ1blYAAMgAEwAAbAABgYPAONhPRVV11F9957L4Q0hDQYAANgAAyAATAABsAAGLAMQEjjYsDFAAbAABgAA2AADIABMNADAxDSPQQNX5UM/qsSxBgxBgNgAAyAATAABkadgUZCGjXSAHnUQYZ/YBQMgAEwAAbAABhYaAYaCemFdgr94UIAA2AADIABMAAGwAAYGHUGIKRR2oGaKDAABsAAGAADYAAMgIEeGGgkpCcmJmjNmjUIcA8BHvWVFPzDah8MgAEwAAbAABgAA70x0EhI4/F3vQUXUCJuYAAMgAEwAAbAABhYvAxASCPLjG8awAAYAANgAAyAATAABnpgAEK6h6BhZbl4V5aYW8wtGAADYAAMgAEw0JSBRkJ6xYoVtHHjRqxUILrBABgAA2AADIABMAAGwIBloJGQbqrK0Q4rODAABsAAGAADYAAMgIGlwgCENFaVWFWCATAABsAAGAADYAAM9MAAhHQPQVsqqyyMExkFMAAGwAAYAANgAAyUM9BISOPxd+UBBFyIDRgAA2AADIABMAAGliYDENLISOOrHDAABsAAGAADYAAMgIEeGICQ7iFoWHUuzVUn5h3zDgbAABgAA2AADEgGGgnpVatW0datW7FSgegGA2AADIABMAAGwAAYAAOWgUZCWipvbGMlBgbAABgAA2AADIABMAAGCoKQxqoSq0owAAbAABgAA2AADICBHhiAkO4haFiBYRUOBsAAGAADYAAMgAEw0EhIr169mu68806sVCC6wQAYAANgAAwsBAPLH6PXLp+iAwvRF/pYJExfS/umZumNQzcskvGMh0hvJKT7eo70xmfpCz+Zp+2T5m/z1z45hAneRs+/dZE6nTk6ft861/+259+ii2efoeta+xDZS6++36Gzz1zn+hjYanXvq/R+p0Md+zd3/D5alxvHtufprYuZdtF+tiN93/vq+85+Z+443bduPKAeWMxz8e1z3/LHXqMObpaDv15q5knPg7ie9PVw+Ry9eKtlfuI2Ojrrr6PLpw4M3efBcb6cHnvNj9V8NlymUwd6uP6VGBRxvXzuRbqV52IkYjpBtx2dpU7nMp178VY3pxO3HaXZYV6XOm6hT3q+P7mFfvvj/TT73evpM3KbY5q8rqMDDz5o2ifHepjPhbSx+av0zuH76PnPlPu5+Zad9O7h/TSv/6rbDu56Kai4+Q664PzYS7/cPOFYarPfL+/aTR8cNvbldtDHlkma6czRsZ3lcQvaR3N67b4pes9ds73bqeqjlWN9jrMVH2zsBi+k3STtpc/+eJ56FtJakL9Dm264sgdAjZCem52lWSE4x1ZIaxEtFgVWFKdi2gj7dH9BhT5H2HDzlF58Ok4jL6QXcBFTEatuL85FL6StIOhJhLUY50KLtowwsX00nwcjMkddSDcfT3q9F0U6RmNPLCyazI0V0TJWE7cdodNCsJrrJe2v2+uo9/ZGSF9W9wYh8ocrpCviYcXz2W99ggq5XTofi1tIu3lvILpd29JY5a6FLvd97kv01uSghfROOrCyICOkzXY8ti2TM9T54A06dEOX/svYjIBQ1aK+bBwj4B/HvZGQvuKKK+iWW27pQcDKSRwBIX38CE2/f5aeuc74NZ5C2i4KxIJATWZW7FaJ5apj8mIqsx21YaCG9wohPbzYy+s82oaQ7vNzM4pnw+uubSFdqHmUGfpaP6wYFOK0nM8K4VjbT2/x8b5YIX3uCB15zWfdhymkTd9li5br6JeH9pMW0oXcLosDhLSf67IYtbh/wELaZL6teNZZ8LyQLootNDnTobljO3v//BkBobqohHQ7IFYJ6W306R9ecOUf2584SletsnBHpSFcIqJet9y7iyYafdB68fnwq++70otQSGeEmM78svBWx+fo+JFpU1Ixd5wO/ewtuqi+AnHlIWzjoC7xyJVL6FhGZRmynEIdVyUVKou8Q5We2K9YXFa5TADn9uf2cbyqjnEb+5oV6dxG2/FfAzs/1XE1zrnjdGTalIjMHT9EP9MlNlH5S5WNwszd2Wd22fIc05ePmYk5xzp4dfNiWApKVTodHeNsOQyPbSCvRjQEfkZfIWsR5L5a65DM6PG1qG+2oo0sD0lFVChU1PHLWjioWKos7UFbtuCFhOon7CPK5toM76lHZcmDON9mI4NxWn9z4+Fx5V7jeGibgajjr+cth/JYVD4g/ZFlBmnMym6uYSxDfyv80Fney3TuyBFT6qB8PHiUZlVMgvmvsmHn5PIpelSVHvD8i/OzsdLtxNworuP5kTFLMtIsNrksw8YgEsmBAOxqAdVFTKMSDB3/yrGoeYxi2pHXlB/b19V1YUt2zFhkfXJsQ14Pyv8mc1tQOD/RnOjPG+tPP6VDNlNtyh1M2YMuBbGfZ7oc4uC/0j/pLK4ti1Dv5eddbOPp2+n7QWmfEeiyD70t7Uj7ruzh+3Ryu/9W+ev3fMeWZRg/zALBXnucZf6KKvGoKd/gtrkykGgsMhbh9Vt2zav9X6T/eYF92E/zD26h1TJevF0ppCts6PN20s/vVqUbxv4j3/uBjs3MPdfRSrbfxavOSs8do51dnBPEo0pIX7uPpt7z9/0P3jhEN7h+VJ32ezR37Hv6lT9zE1Gv7Xsbpt0Hur47LC+Rbcxx7Sf7d1CVstg22ey18UeV9vZa7hLExY3T89IoI11npNnxMiFtRfTDj9MK6+D6Pe9SIKbV/jZKO1QWV4m2N0xddPdCukO6VniHrTtWQi0R22pCfcmE7qPDYtyKS3HclFiEwtIJPi6nkKJXbwt7PKmijelTwsfb4jzdnvfzq/dbzmmpkLY2YlHrxLRdMMhFgWqrx8cit86GFdLqIuN+kpjqGPAiJl+fXjoGjl/d68q76OnpaZpO/qboyW/6C0rGLd1OBUgs4Mx7kY2yQpBv8MqmEbi5m7DxI7YZf1VvbuZKCOxw9aGnDoRiJunDCiNXR+oEKvthhYYQdXr8XQmqNI6xH0bgiPiwSBL9JjFUc2uFv/M/mm8TE74O7Kuw6ecyjJPfn44/9MOc11GCdYddfCj7QXzqbPDcC/Gd4UP5ZPqWQlDEtiYWzAvfAPVrILRZ0Mt5COMSz5uPk/DDzUF4rmwbl4KEMa2f19pYWH70okrF5ZyJmeHMx6/ajyZzy3PiY5aNUe3c5OIn9iXlHmlG2tcVc01xnNleRwf2fE0IZ3NcClAtgIW41u+liI790O9DEV1s/ipNqRIVy4Hxi30qSB3XAtr1Y8W77IcZKhPSsR82iy/Hwv2XvxoB7AXt39ILjz2SF9OlQrrGhj7PCnRbb636+zdVE/3EV+m25WKOecx1r0poZoVlQ1ssVONaayuivTA22W8vplm4+oy4EcZCyMY29Hshku3Y6jPSHVHCEvvB42R/RP91sevy+PCFtBbIp2nDlTzoEtHclpDWwmxW/+hQiysWdEVGiGVEshZzQrQaIcwCNWND2/UClbPNMhMaCEubkQ5/3Cfs6r65PxEz6RNDkNvX5Bi3sa9lIjSMn/ElaCviJ/fL8+Q2f5DJtoUV0k6cK5+y4xIxivxXdrVNuYDJtOH+B/aqRFMkSELBkxcUTdpIn8P2al5Cu/64zX7pzKLd1pkwuc2MybZ5AZOKXM58sthmW81fla8yc8yC2NVcW+Hh3qt5zYmR3D7BgI9JnW9hLF3ca/0Q50lf5Hlym32TbXkRFTAUzYs9r3I82mYnjCv3p1+Fr4E9LwKTGAcLAhb8Tec97c/FNfArw1PtWDgLXOaLjJ/ZVoutWEgn/gTjFf7L+bLbhk3VRmaxFWfiPB5nYLeOxfS4yzazvaJMSAvBmmkTjzcUysZmkj12gteKYPne9hGc43y044jFdk4cq32BXXturm1RUBoPuy9nI/aH3ythG4vZsrKKMiFdZ0OeJ23nzmO/6l7LhHDdeXy85HwtbqNMdyh4jXD1wrqgIhbKicg353hxbuY1tBvxnvGv7yw8j73L10ZCeqA10lt/TVvtEz1k2cb2yeiHha0JaSOq1I8OdenEgghpzqaaMoUg08NfSTg/TGmHLxeJ4MmKSBaXkcAua6sgqToWQRQKW++Py5zzGPiVM+kNhHStjZaEtLoxGDHNWccoVtGY4xtJ0UJGOic0A8Ejb8LCn+C8kjbS38CmthPesP3xVESYzLdpn+PUidqMH4Gf7H+fwkDb7HgRZHwXgk7b5zmVr5FoyfhbHTPPuWyXFT9qrLV+iDmQvthtLbZqbeQywXIOvc9+jv2+YBy6Xx8v+Y1HfozK/zCmqg/mQW7rfrqadxEb5oZfIz8Nk54H3VfUJhyLGb+OB38+VSxENG/nXqQd8VM7oj5CP4T/up2Nk93Wc5s938Q/8LeruKVzGwpedbxESNcISZ+1FuUMIhMcZqQzmeI4E6yFbpSRttnhsDxEtMmJ49w+xUrJfu2nKwsRYwnGv4F++pg4dng/zdx9rcuUmx/1hceNz5n6ZCmImeGCfxhYYUOeN+JCWotVvpbkq8t+NxDScUZai+JeMtJhlnmkhXRfj79zMJWUduQy0u4c8UHRopAuVJb4bVvj7ARsJqMphKA+hx9tJ0Wo3mZRlrEh24r6Z5mRDm5wnJF2fokY6Lj4em9pIyt2o76DfqqORfHP2mZhWuonl7GY2EgbetueJ7cD/5wPmfFmfc/E3tmIY2gXKyz4K9rlfUrtNWmXE5qh4BE3ZOFTkzay/7C98jW0649LEWa3SzPS0ZilYLC+5sZnBGYkfMTYpN+5bSOkveBTNd257HOwL2c/46/sz8ckGmdiK4ylsyFFU3JONAfSF3me3M7aaFFIS/tWvPmyl8wYpc98rjpPi1LVPjcvsha5Kq6Z/nQfdr+sxa4TmslY4n4N574uXV4DPE+2ft2V9tT5IfyXcQrmU7UJFyKOHY6nepXny/0Nt1sR0hnRG9tNBGogTAv3RBEpksNsdJn4rhbSWuDHfanYlAjpXEY6G/eq+HaTFZaCWNqssyHPa1NIO3EbXwcN3mcyvip2uYx0GNPmQloma+JstOurbAwZ/5aukC7SGulwUnjCjRBv/gNDPk+9pmJs76tv0xun3xbPkY7aaLGmbuAZkSyFnN7OtLEXkc64SsGmxbkv9ciNNS71iNto8SnLFKyvXEPs2ks/5UWttquORW2lCHa2nQ3Otst4222xEJE2AvFc5rvzIZoX128cQ9OuNJPv7BnfpD/BmKJ2rR6LbpJavKkVvbthp3WULES9yKn7qjoWW1Y4iB9YedEoRYTdlj+2ikWrjE00FhWnrJDW7WoElRY/Kg4i06z7Cn3Kz4Udn4hhvl1GDInx+JhkOBbt4kWJ76vOjyZiq85GLsY2RlJs8lxUzZ8cUzKXwlfbzsSnZH6iR8dxTAzfoXiMa41N27Q/vT9hx7RLFlOVY0nnM5zrNH7q+LnTr/nnSNf6IfyXsbTbvMjLxzD2L/WH49noNRCUVqwets+dtnEqFaPyuHx+s7a5n+ZdRlrVTAvBK+Mvbbj28RjV+7jumn0VdoOx5M4RdpO29licGc/4Wh/XuL5Z9Bvbk4I4OFZjQ57XkpCuEpVaDKt7T1SiEcQiI1T18TibHIxTxaZeSNeLcRvjkky19iPjX37Mxp9OJ814B+NNxlExz1HbRqUd/fxnw7V3/J62ZUo3QkEcPbVDtZdP7mCnozKQ0EbVoMvEmHziBmdQOft1lp7ZpX5UmBHJUoTqbW5jxZz8uiOXsdUCk/sxr1IE1wlpNflaCLp+YlFpYyH95BjyqxWwckWotr0fJsMbH/cLC9lHOBZXz9xESCt/Mr44G5lFUOkiILYjYp+WkPCcVXHT/rEgw8pPXwhEoBVTbm5DIcIXvhEpIu6BDRYc5vjlU4/qHxXyV8heSMibtt0WTwsIfNX+CF+kYLBMZYW0E3XeV/aDx+LKIhIhXVYyIfzQfccxy4ny1BaXJSg/kniq8Qp/0ljY2AYCtsqPZmIr94SJxA/hF7eXYzFxjX0RGWNeuDjG4oVOyI/+DAj48teFiUs8H/FxMfciXk1iGrZR/agnzHQzljgO4bxm42eFs1zgVvvRdG5znImx1FxH7nqx7crey2yx+lHdnnu+E/xDljohzeUgLpv89O106I6d9K4QxtpGUjIh666NUHY2bNvgR34s0O2xs9+6MRToVgRLG9msduKHEOMqVhk7gR818TRxNkJY+iKf3PGgfcJGcPzwfpq+ZYUrEUme/KH85qd/tC6kqx9/Vy6kWXT6a9ZogEiEWjEt9YGvia4X0vx4Pnm+2vY2/GeIFsfus0r40VhIF8Q2cvbLrqNu9jcS0t0YRFsPAGKBWICBfhgQAkXc7Jpl9vrpF+c25VYLzEDYI3ZNY1feznIvFh3lbYcQby1MI7Fqa7E5ax2Xgmj/tXCOzxuC/+KzZKTi2qJf+czs6MQ6619V9rnf2GjbeaHeBgMQ0v1OEM4XK+7RuVDbuDhgY8jzaTODYQbbZhhLMqSYswWcs8y3Eoh/S/GvrfVuqZ9e7l9ZQSxLNTL1z/wEDVky0kvfOKf+fpvJ1I7WdWmz3lFZicmShz8ebMtvk5EejG3lI4Q0Lsz6CxMxQoyGxUCmDEF+5d7WBy3sdCHMxJyEi5wubAyLp3HqV8V5RBeMudKOsFwiV9ohSz/AymA+c5RIndX/1GQw9tuaN1N6EpZ2DEDouhKUAdgWnyWNhPSqVato69atEBMicKMNaVuwww7mGQyAATAABsAAGAADZQw0EtLtPP4Ok1A2CdgPNsAAGAADYAAMgAEwMH4MQEgjy4xvGsAAGAADYAAMgAEwAAZ6YABCuoegYcU4fitGzBnmDAyAATAABsAAGGibgUZCuu1OYQ8ggwEwAAbAABgAA2AADIw7AxDSyEjjqxwwAAbAABgAA2AADICBHhiAkO4haOO+eoL/yACAATAABsAAGAADYKB/BhoJ6ZUrV9L111+PlUoD0b1uyw764+GH6fVvfILktoH1Snrykf00f/gBOvaPfvI23vbv9Of9N9E/W/vyPLm9kMB/7O5X6HynQ5dmXqCbedwfu5teOT9PUw943/v16ZqnzlBnfooe4D4G9noNPXVG/NvTSzP0ws25cXyM7n7lPLnnW7p20X7+l6XS92ueojO8v3OJZl64GddMS/N5zf3/Ra/MHaOTJ26njS3Z7JddnJ+7frAPXIABMLC0GGgkpEfi8Xcbn6Uv/OQd2nTDlSMtTozwNUJZbpsLywjpPz++h87e/3k3jryQLrOxMIBqIX1plmZnheAcWyFtRLRfFFhR7ESyj6kW9pn9RWHO8Tb8OcmHpo7T6AvphVvEVMSqVhSvp28cPUwnT+yhR09DSCes1cavn9jjXMQbDIABMFDHAIR02zei9Vvpd5xxltu6HyOkz3/3K/TS4/fQf19nAI2FdCHPk9tt+1phzwjpGTry0hman3rAiP4xFdI8liADnRW7VWK56lj0QZO1HbWpiH3dRdvW8XEQ0ioTffinN1JRbKLvQUi7xXdbDMDO6F2XmBPMCRgYLwYGL6R1Jvk0bbhyL332x/O0fVL9qfcyUNvo0z+8YI/N0/YnjtJVq+xxfT6fF75uuXcXTWhBYmxv/ton/Y1m669pq+yn1g9lQ2W89wk/286AWyF9//X07d17dPmHumASId2ayFpDN//wV/S/k3tpc5c2nfj85lN0hssXIiGdCjGT+WXhrY5fmjlCL+mSiks084vH6ZXzqrzCl4ewjYOqxIPLIrg/53NUlhEfVyUVKou8Q5We2PINl1UuE8C5/bl9zGnVMW5jXyuFtLHjxur8VOeqcV6imSMvmRKRSzP0i8dNiU1Y/lJloyA9d/NT9ANbnqP7EjHTMedYB69+XvQHeVCq0qFO4Gs0ZjdXmf2fuJ2eeOU4PX3XZ/z1WdU+e6xOSH+ZDr/9F+p03qBD6zI+ZG2iHW7YYAAMgAEw0B8DjYT0xMQErVmzpreboBDCLHTX73mXtj/8OK3QNzcrot37gvRxKaZVO22nTNg2FdJGiOf9YKHv+8j60dcNmYX050llnf/P1kWPtJC+WYm2P5q66B6EdEfXCu+wdcdKqKViWwk9VzKh++j4LLgWl+K4LbEIhKUTfFxOIUWv2WZx7z8wRBvbpxO3Qlz680z7uI3zW3JRKqStjVjUOoFqFwzqPS8KVFs9Pha5dTaskFZj4H6SmJoPDV7EZOvTS8fQwwcOhHRvn52SKWwjhmAADICBkWSgkZD24qOHm6gV0ixela21d/yetrFQdpliYXYAtHwAAAbBSURBVDsnmnP7HFTNhXSpH0UDG64/4WtX+4SQLtS2qYMebSFthNms+tGhFlcs6ApKhVhGJGsxJ0SrFcIsUFMbxq4TqJxtlj8MDIRlQYV+zyLazI23a/rm/jzL0ieez9y+Jse4jX0tE6FR/LQvQVsRP7lfnie3mT3ZtrBC2olz5VN+XD5Gkf/KrrYpFzCZNtx/3euCCOk+/KvzH8dH8ublr2XMPWIBBsDA8BhYICHts7zJZOsSjLBkw5R/ROe0IqQjm8ENcqGFtCnpOH//51sv7Vj/H8/R9PR09u/EY7c2uim60g4lYJWoUj861FnShRHSnE3VfogMsc8Iez+MkBbvg3nNi0gWl6HALmurLtCqY9EFHAlbx7wW/OLJIW5cvAhoIKRrbbQkpFUMrZjmmIexisYcxFwd+3v6/s/zDE5PH6GHxVNrXHwSG7KPutIO2RbbzWKKOCFOYAAMgIF+GWgkpJcvX05XX311IwGWOFQpgLlkI66ZzkxspZ0GIrjyfNVfAxuVN/qMz0l7mZEuqFjzd/TSwR30SPT4uySGiZ0mfak2LdRI20zwNU+9bmucvWBNM5pCCBYyYy1FqNlmUZbakG1ttjnIrmbGHmeoo3gFiwI+lhW7Ud/cVr9WHYt8ytpmYerjl86ziJ+0obfteXI78M/7kI4373sae28j8S2T9U/alPhTICPd22dnWTyxH/EEA2AADIwMA42EdF+Pv6sVsGmNdP4GbYSu/4GhvOkbG+6Y7lNluYVAr/VjCEK6WEXf3n0fTT0QPkc6P3453qbb7QlplfV9/Y+n6XXxHOlQsBmxprKXqUiWQs5sp23smBLBZsSlK/XIfXjUCGnOrHob1leuIXY2pZ9xjKuORW2lCHa2VZuyfvn8BkK61kbzjLTJ9lcJe/aLFwGcORf7g/GV7F8QIc0/NvwTHdu1emQ+YNu7lkti2yT+aAMewAAYAAMDY2AEhLS6QURP7VBP9uAaajn5URmIE86qTXDsNG34B/Xc6VEX0oX+0eHvDu8P/iFLezffFoU0CzjxxA3zlAlfqjA/9QP9o8JUJEsRara5jRFz3oZ8ooePgxGYXGKgX6UIrhPSig8tbn0/XlRLgSL9lPvVthXBrhzD2hJ+6AxvfFwsLMx4MnZcxr2JkC7xxdloLqTTMQlRrWPq4yUXSH5e4hiVvO9HSN94L/187hj9Nv77w3doq/xsKAp66Dcf6ie//OnYLlodHevaZ5w/sJsO5qLkOgFzYA4MjCUDgxfSAGMswcDNDje7sWPgod/Qh50OQUiD3bFjF/dJ3CfBwNgy0EhI91UjDTjGFg7cjCBIxokBk5HGc6THac7gKz5jwAAYGHcGGgnpcR8k/MeFCgYWMQNfPkxv/0WVoUBEg/NFzDmSUkhKgYGRZABCGmCOJJgQBBAEYAAMgAEwAAbAwKgz0EhI9/WfDSFUIVTBABgAA2AADIABMAAGFiEDjYR0X4+/W4RBG/XVEfzDCh4MgAEwAAbAABgAA4NnoJGQxkQMfiIQY8QYDIABMAAGwAAYAAPjxQCENDLm+KoJDIABMAAGwAAYAANgoAcGIKR7CBpWi+O1WsR8Yb7AABgAA2AADICBQTBQI6T30dSH5r+bnX/5LloL0YnVGhgAA2AADIABMAAGwAAY0AzUCGm7evnSJM1cOk8v37UW4AAcMAAGwAAYAANgAAyAATBQFNRMSBdfosmZS3TmyY8jaLhwwAAYAANgAAyAATAABsAAhDTqhQZRLwSb4AoMgAEwAAbAABhYCgwgI40VJVaUYAAMgAEwAAbAABgAAz0w0FBIF7Rv6kPqnHmSPt5DJ0thRYIxYuUNBsAAGAADYAAMgIGlxUBjIa3B2DdFH3Y6qJXGYgKrVjAABsAAGAADYAAMLHkGGgtpZKSX1goLK2rMNxgAA2AADIABMAAGqhloKKTx1A6AVA0S4oP4gAEwAAbAABgAA0uNAQhpfC2z5L+WWWoXPcaLGx0YAANgAAyAgXYYgJCGkIaQBgNgAAyAATAABsAAGOiBAQjpHoKGVVw7qzjEEXEEA2AADIABMAAGxpmBZkIa/yIcqzQsOMAAGAADYAAMgAEwAAYCBmqE9D6a+rBDnU6Hzr98F61F8ILgjfMKCr4jAwAGwAAYAANgAAyAgf4YqBHS/RnH5CB+YAAMgAEwAAbAABgAA4uVAQhpZNmRZQcDYAAMgAEwAAbAABjogYFl69atI/m3WFcMGBdWw2AADIABMAAGwAAYAANtMrDs6NGjJP+U8U996lO0d+9e/ae28YcYgAEwAAbAABgAA2AADICBkIH/B8BOldXg5hX6AAAAAElFTkSuQmCC;" vertex="1" parent="1">
          <mxGeometry x="210" y="660" width="353.93" height="50" as="geometry" />
        </mxCell>
        <mxCell id="WUKZvmKu0vjh5GC4oTGp-23" value="AÃ±adimos el identificador N y se agragamos el numero de elementos existentes, por lo que es una forma facil de crear un id que no se repita" style="text;html=1;align=center;verticalAlign=middle;whiteSpace=wrap;rounded=0;" vertex="1" parent="1">
          <mxGeometry x="250" y="720" width="270" height="50" as="geometry" />
        </mxCell>
      </root>
    </mxGraphModel>
  </diagram>
</mxfile>
